<svg width="39" height="38" viewBox="0 0 39 38" fill="none" xmlns="http://www.w3.org/2000/svg">
<path d="M32.9398 9.49896H35.473C35.8089 9.49896 36.1311 9.36551 36.3686 9.12797C36.6062 8.89044 36.7396 8.56827 36.7396 8.23235V6.2159C37.1621 6.06651 37.5183 5.77254 37.7451 5.38597C37.9718 4.99939 38.0546 4.54509 37.9788 4.10336C37.9031 3.66163 37.6735 3.26092 37.3309 2.97204C36.9882 2.68317 36.5545 2.52472 36.1063 2.52472C35.6581 2.52472 35.2244 2.68317 34.8817 2.97204C34.539 3.26092 34.3095 3.66163 34.2337 4.10336C34.1579 4.54509 34.2408 4.99939 34.4675 5.38597C34.6943 5.77254 35.0504 6.06651 35.473 6.2159V8.23235H32.9398V5.40464C32.9384 4.92454 32.7558 4.46266 32.4286 4.11135C32.1013 3.76005 31.6535 3.5452 31.1747 3.50979C29.2033 3.37046 24.1621 2.77705 20.0089 0.279294C19.7067 0.0965812 19.3602 0 19.007 0C18.6539 0 18.3074 0.0965812 18.0051 0.279294C13.8513 2.77705 8.81082 3.37046 6.83934 3.50979C6.36049 3.54506 5.91262 3.75986 5.58536 4.11119C5.25809 4.46253 5.07557 4.92449 5.07432 5.40464V8.23235H2.54109V6.2159C2.96364 6.06651 3.31978 5.77254 3.54655 5.38597C3.77332 4.99939 3.85613 4.54509 3.78034 4.10336C3.70455 3.66163 3.47505 3.26092 3.13238 2.97204C2.78972 2.68317 2.35597 2.52472 1.90779 2.52472C1.4596 2.52472 1.02585 2.68317 0.683189 2.97204C0.340527 3.26092 0.11102 3.66163 0.0352317 4.10336C-0.0405568 4.54509 0.0422532 4.99939 0.269025 5.38597C0.495798 5.77254 0.851931 6.06651 1.27448 6.2159V8.23235C1.27448 8.56827 1.40793 8.89044 1.64546 9.12797C1.883 9.36551 2.20517 9.49896 2.54109 9.49896H5.07432V13.2988H3.69118C3.54178 12.8762 3.24782 12.5201 2.86124 12.2933C2.47466 12.0666 2.02036 11.9838 1.57864 12.0595C1.13691 12.1353 0.736195 12.3648 0.447318 12.7075C0.15844 13.0502 0 13.4839 0 13.9321C0 14.3803 0.15844 14.814 0.447318 15.1567C0.736195 15.4994 1.13691 15.7289 1.57864 15.8047C2.02036 15.8804 2.47466 15.7976 2.86124 15.5709C3.24782 15.3441 3.54178 14.988 3.69118 14.5654H5.07432V18.3652H2.54109C2.20517 18.3652 1.883 18.4987 1.64546 18.7362C1.40793 18.9738 1.27448 19.2959 1.27448 19.6318V21.6483C0.851931 21.7977 0.495798 22.0916 0.269025 22.4782C0.0422532 22.8648 -0.0405568 23.3191 0.0352317 23.7608C0.11102 24.2026 0.340527 24.6033 0.683189 24.8921C1.02585 25.181 1.4596 25.3395 1.90779 25.3395C2.35597 25.3395 2.78972 25.181 3.13238 24.8921C3.47505 24.6033 3.70455 24.2026 3.78034 23.7608C3.85613 23.3191 3.77332 22.8648 3.54655 22.4782C3.31978 22.0916 2.96364 21.7977 2.54109 21.6483V19.6318H5.07432V20.8313C5.07284 22.6587 5.46715 24.4648 6.23011 26.1253C6.99308 27.7858 8.10662 29.2614 9.49415 30.4506L11.4074 32.089V35.4645H9.39093C9.24153 35.0419 8.94757 34.6858 8.56099 34.459C8.17441 34.2323 7.72012 34.1494 7.27839 34.2252C6.83666 34.301 6.43595 34.5305 6.14707 34.8732C5.85819 35.2159 5.69975 35.6496 5.69975 36.0978C5.69975 36.546 5.85819 36.9797 6.14707 37.3224C6.43595 37.6651 6.83666 37.8946 7.27839 37.9703C7.72012 38.0461 8.17441 37.9633 8.56099 37.7366C8.94757 37.5098 9.24153 37.1536 9.39093 36.7311H11.4074C11.7433 36.7311 12.0655 36.5977 12.303 36.3601C12.5405 36.1226 12.674 35.8004 12.674 35.4645V33.1745L17.7708 37.5405C18.114 37.8369 18.5523 38 19.0058 38C19.4592 38 19.8976 37.8369 20.2407 37.5405L25.3401 33.1745V35.4645C25.3401 35.8004 25.4735 36.1226 25.7111 36.3601C25.9486 36.5977 26.2708 36.7311 26.6067 36.7311H28.6231C28.7725 37.1536 29.0665 37.5098 29.4531 37.7366C29.8397 37.9633 30.294 38.0461 30.7357 37.9703C31.1774 37.8946 31.5781 37.6651 31.867 37.3224C32.1559 36.9797 32.3143 36.546 32.3143 36.0978C32.3143 35.6496 32.1559 35.2159 31.867 34.8732C31.5781 34.5305 31.1774 34.301 30.7357 34.2252C30.294 34.1494 29.8397 34.2323 29.4531 34.459C29.0665 34.6858 28.7725 35.0419 28.6231 35.4645H26.6067V32.089L28.5199 30.45C29.9075 29.2609 31.021 27.7855 31.784 26.125C32.547 24.4646 32.9413 22.6587 32.9398 20.8313V19.6318H35.473V21.6483C35.0504 21.7977 34.6943 22.0916 34.4675 22.4782C34.2408 22.8648 34.1579 23.3191 34.2337 23.7608C34.3095 24.2026 34.539 24.6033 34.8817 24.8921C35.2244 25.181 35.6581 25.3395 36.1063 25.3395C36.5545 25.3395 36.9882 25.181 37.3309 24.8921C37.6735 24.6033 37.9031 24.2026 37.9788 23.7608C38.0546 23.3191 37.9718 22.8648 37.7451 22.4782C37.5183 22.0916 37.1621 21.7977 36.7396 21.6483V19.6318C36.7396 19.2959 36.6062 18.9738 36.3686 18.7362C36.1311 18.4987 35.8089 18.3652 35.473 18.3652H32.9398V14.5654H34.3229C34.4723 14.988 34.7663 15.3441 35.1528 15.5709C35.5394 15.7976 35.9937 15.8804 36.4354 15.8047C36.8772 15.7289 37.2779 15.4994 37.5668 15.1567C37.8556 14.814 38.0141 14.3803 38.0141 13.9321C38.0141 13.4839 37.8556 13.0502 37.5668 12.7075C37.2779 12.3648 36.8772 12.1353 36.4354 12.0595C35.9937 11.9838 35.5394 12.0666 35.1528 12.2933C34.7663 12.5201 34.4723 12.8762 34.3229 13.2988H32.9398V9.49896ZM36.1063 3.79921C36.2315 3.79921 36.354 3.83635 36.4581 3.90594C36.5623 3.97553 36.6435 4.07443 36.6914 4.19016C36.7393 4.30588 36.7519 4.43321 36.7274 4.55606C36.703 4.67891 36.6427 4.79176 36.5541 4.88033C36.4655 4.9689 36.3527 5.02921 36.2298 5.05365C36.107 5.07808 35.9797 5.06554 35.8639 5.01761C35.7482 4.96968 35.6493 4.8885 35.5797 4.78436C35.5101 4.68021 35.473 4.55777 35.473 4.43251C35.473 4.26455 35.5397 4.10347 35.6585 3.9847C35.7772 3.86593 35.9383 3.79921 36.1063 3.79921ZM1.90779 3.79921C2.03304 3.79921 2.15549 3.83635 2.25963 3.90594C2.36378 3.97553 2.44495 4.07443 2.49289 4.19016C2.54082 4.30588 2.55336 4.43321 2.52892 4.55606C2.50449 4.67891 2.44417 4.79176 2.3556 4.88033C2.26703 4.9689 2.15419 5.02921 2.03134 5.05365C1.90849 5.07808 1.78115 5.06554 1.66543 5.01761C1.54971 4.96968 1.4508 4.8885 1.38121 4.78436C1.31162 4.68021 1.27448 4.55777 1.27448 4.43251C1.27448 4.26455 1.3412 4.10347 1.45997 3.9847C1.57874 3.86593 1.73982 3.79921 1.90779 3.79921ZM1.90779 14.5654C1.78253 14.5654 1.66009 14.5283 1.55594 14.4587C1.45179 14.3891 1.37062 14.2902 1.32269 14.1745C1.27476 14.0587 1.26221 13.9314 1.28665 13.8085C1.31109 13.6857 1.3714 13.5729 1.45997 13.4843C1.54854 13.3957 1.66139 13.3354 1.78424 13.311C1.90708 13.2865 2.03442 13.2991 2.15014 13.347C2.26586 13.3949 2.36477 13.4761 2.43436 13.5803C2.50395 13.6844 2.54109 13.8068 2.54109 13.9321C2.54109 14.1001 2.47437 14.2611 2.3556 14.3799C2.23683 14.4987 2.07575 14.5654 1.90779 14.5654ZM1.90779 24.065C1.78253 24.065 1.66009 24.0278 1.55594 23.9583C1.45179 23.8887 1.37062 23.7898 1.32269 23.674C1.27476 23.5583 1.26221 23.431 1.28665 23.3081C1.31109 23.1853 1.3714 23.0724 1.45997 22.9839C1.54854 22.8953 1.66139 22.835 1.78424 22.8105C1.90708 22.7861 2.03442 22.7986 2.15014 22.8466C2.26586 22.8945 2.36477 22.9757 2.43436 23.0798C2.50395 23.184 2.54109 23.3064 2.54109 23.4317C2.54109 23.5996 2.47437 23.7607 2.3556 23.8795C2.23683 23.9983 2.07575 24.065 1.90779 24.065ZM7.60754 36.7311C7.48228 36.7311 7.35984 36.694 7.25569 36.6244C7.15155 36.5548 7.07037 36.4559 7.02244 36.3401C6.97451 36.2244 6.96196 36.0971 6.9864 35.9742C7.01084 35.8514 7.07115 35.7385 7.15972 35.65C7.24829 35.5614 7.36114 35.5011 7.48399 35.4767C7.60683 35.4522 7.73417 35.4648 7.84989 35.5127C7.96561 35.5606 8.06452 35.6418 8.13411 35.7459C8.2037 35.8501 8.24084 35.9725 8.24084 36.0978C8.24084 36.2658 8.17412 36.4268 8.05535 36.5456C7.93658 36.6644 7.7755 36.7311 7.60754 36.7311ZM30.4065 35.4645C30.5318 35.4645 30.6542 35.5016 30.7584 35.5712C30.8625 35.6408 30.9437 35.7397 30.9916 35.8554C31.0396 35.9712 31.0521 36.0985 31.0277 36.2213C31.0032 36.3442 30.9429 36.457 30.8544 36.5456C30.7658 36.6342 30.6529 36.6945 30.5301 36.7189C30.4072 36.7434 30.2799 36.7308 30.1642 36.6829C30.0485 36.635 29.9496 36.5538 29.88 36.4496C29.8104 36.3455 29.7732 36.223 29.7732 36.0978C29.7732 35.9298 29.84 35.7687 29.9587 35.65C30.0775 35.5312 30.2386 35.4645 30.4065 35.4645ZM36.1063 24.065C35.981 24.065 35.8586 24.0278 35.7544 23.9583C35.6503 23.8887 35.5691 23.7898 35.5212 23.674C35.4733 23.5583 35.4607 23.431 35.4852 23.3081C35.5096 23.1853 35.5699 23.0724 35.6585 22.9839C35.747 22.8953 35.8599 22.835 35.9827 22.8105C36.1056 22.7861 36.2329 22.7986 36.3486 22.8466C36.4644 22.8945 36.5633 22.9757 36.6329 23.0798C36.7025 23.184 36.7396 23.3064 36.7396 23.4317C36.7396 23.5996 36.6729 23.7607 36.5541 23.8795C36.4353 23.9983 36.2743 24.065 36.1063 24.065ZM36.1063 13.2988C36.2315 13.2988 36.354 13.3359 36.4581 13.4055C36.5623 13.4751 36.6435 13.574 36.6914 13.6897C36.7393 13.8055 36.7519 13.9328 36.7274 14.0556C36.703 14.1785 36.6427 14.2913 36.5541 14.3799C36.4655 14.4685 36.3527 14.5288 36.2298 14.5532C36.107 14.5777 35.9797 14.5651 35.8639 14.5172C35.7482 14.4693 35.6493 14.3881 35.5797 14.2839C35.5101 14.1798 35.473 14.0574 35.473 13.9321C35.473 13.7641 35.5397 13.603 35.6585 13.4843C35.7772 13.3655 35.9383 13.2988 36.1063 13.2988ZM31.6732 20.8313C31.6746 22.4759 31.3199 24.1012 30.6333 25.5955C29.9468 27.0899 28.9447 28.4178 27.696 29.488L19.4187 36.5791C19.304 36.6772 19.158 36.7311 19.007 36.7311C18.8561 36.7311 18.7101 36.6772 18.5954 36.5791L10.3187 29.4886C9.06987 28.4184 8.06764 27.0904 7.38097 25.5959C6.6943 24.1015 6.33949 22.476 6.34093 20.8313V5.40464C6.33899 5.24385 6.3989 5.08846 6.50828 4.97059C6.61766 4.85272 6.76815 4.78139 6.92863 4.77133C9.49289 4.5902 14.427 3.9075 18.6587 1.36225C18.7636 1.29817 18.8841 1.26427 19.007 1.26427C19.1299 1.26427 19.2505 1.29817 19.3554 1.36225C23.5858 3.9075 28.5199 4.5921 31.0848 4.77133C31.2454 4.78124 31.3959 4.85253 31.5053 4.97043C31.6148 5.08833 31.6746 5.2438 31.6725 5.40464L31.6732 20.8313Z" fill="#0034EE"/>
<path d="M29.3014 5.61931C25.9178 5.23216 22.6319 4.23733 19.6017 2.68267C19.419 2.58401 19.2147 2.53235 19.007 2.53235C18.7994 2.53235 18.5951 2.58401 18.4124 2.68267C15.3824 4.23778 12.0964 5.23264 8.71266 5.61931C8.40643 5.65867 8.12511 5.80854 7.92161 6.04074C7.7181 6.27293 7.60641 6.57147 7.60754 6.88022V20.6926C7.60496 22.1626 7.91916 23.6159 8.52875 24.9536C9.13834 26.2912 10.029 27.4818 11.1401 28.4443L18.1806 34.524C18.4108 34.7206 18.7036 34.8286 19.0064 34.8286C19.3092 34.8286 19.602 34.7206 19.8322 34.524L26.8721 28.4443C27.9837 27.4821 28.8748 26.2916 29.4847 24.9539C30.0946 23.6162 30.4091 22.1628 30.4065 20.6926V6.88022C30.4077 6.57147 30.296 6.27293 30.0925 6.04074C29.889 5.80854 29.6077 5.65867 29.3014 5.61931ZM29.1399 20.6926C29.1423 21.9807 28.8671 23.2541 28.3331 24.4262C27.799 25.5983 27.0186 26.6415 26.045 27.4848L19.007 33.5646L11.9685 27.4848C10.995 26.6414 10.2147 25.5982 9.68075 24.4261C9.14678 23.254 8.87167 21.9806 8.87416 20.6926L8.86909 6.87579C12.4046 6.47176 15.8375 5.42933 19.0007 3.79919C22.1682 5.42627 25.6027 6.46992 29.1399 6.88022V20.6926Z" fill="#0034EE"/>
<path d="M11.4074 17.732C11.4074 19.2351 11.8531 20.7044 12.6881 21.9541C13.5232 23.2039 14.7101 24.178 16.0988 24.7532C17.4874 25.3284 19.0155 25.4789 20.4897 25.1856C21.9638 24.8924 23.318 24.1686 24.3808 23.1058C25.4436 22.0429 26.1674 20.6888 26.4607 19.2146C26.7539 17.7404 26.6034 16.2124 26.0282 14.8237C25.453 13.4351 24.4789 12.2482 23.2292 11.4131C21.9794 10.578 20.5101 10.1323 19.007 10.1323C16.9921 10.1345 15.0604 10.9359 13.6357 12.3606C12.2109 13.7854 11.4095 15.7171 11.4074 17.732ZM19.007 11.3989C20.2596 11.3989 21.484 11.7704 22.5255 12.4662C23.567 13.1621 24.3787 14.1512 24.858 15.3084C25.3373 16.4657 25.4628 17.739 25.2184 18.9675C24.974 20.196 24.3709 21.3244 23.4852 22.2101C22.5995 23.0958 21.471 23.699 20.2425 23.9434C19.0141 24.1877 17.7407 24.0623 16.5835 23.583C15.4263 23.1036 14.4372 22.2919 13.7413 21.2504C13.0454 20.209 12.674 18.9846 12.674 17.732C12.6758 16.0529 13.3436 14.4432 14.5309 13.2559C15.7182 12.0686 17.328 11.4008 19.007 11.3989Z" fill="#0034EE"/>
<path d="M17.2927 20.7128C17.4114 20.8316 17.5725 20.8984 17.7404 20.8984H17.7613C17.848 20.8955 17.9331 20.8748 18.0114 20.8377C18.0897 20.8005 18.1596 20.7477 18.2167 20.6824L22.6498 15.616C22.7605 15.4895 22.8164 15.3243 22.8053 15.1566C22.7941 14.9889 22.7168 14.8325 22.5903 14.7218C22.4638 14.6111 22.2985 14.5552 22.1308 14.5663C21.9631 14.5775 21.8067 14.6548 21.6961 14.7813L17.7062 19.3411L16.2851 17.92C16.1656 17.8046 16.0057 17.7408 15.8396 17.7422C15.6736 17.7437 15.5147 17.8103 15.3973 17.9277C15.2799 18.0451 15.2133 18.2039 15.2118 18.37C15.2104 18.536 15.2742 18.696 15.3896 18.8155L17.2927 20.7128Z" fill="#0034EE"/>
</svg>
