<svg width="21" height="20" viewBox="0 0 21 20" fill="none" xmlns="http://www.w3.org/2000/svg">
<path d="M4.75671 6.49892V19.9983H0.261623V6.49892H4.75671ZM5.04249 2.33128C5.04333 2.35544 5.04416 2.38377 5.04416 2.41293C5.04416 3.03699 4.7792 3.59857 4.35594 3.99183L4.35427 3.99267C3.90018 4.4076 3.29278 4.66172 2.6254 4.66172C2.58457 4.66172 2.54291 4.66089 2.50208 4.65922H2.50792H2.48042C2.44626 4.66089 2.40627 4.66172 2.36627 4.66172C1.71305 4.66172 1.11981 4.40677 0.679053 3.99183L0.679887 3.99267C0.259957 3.58607 0 3.01783 0 2.38877C0 2.36877 0 2.34878 0.000833194 2.32795V2.33128C0 2.31378 0 2.29378 0 2.27379C0 1.63889 0.269955 1.06732 0.700717 0.666556L0.702383 0.665722C1.15564 0.253291 1.76137 0 2.42543 0C2.46376 0 2.50125 0.000833194 2.53958 0.00249958H2.53458C2.5704 0.000833194 2.61123 0 2.65372 0C3.30778 0 3.90352 0.252458 4.34844 0.664889L4.34678 0.663223C4.77587 1.07732 5.04249 1.65722 5.04249 2.29962V2.33461V2.33294V2.33128ZM20.9248 12.263V19.9983H16.4439V12.7787C16.4481 12.7129 16.4498 12.6362 16.4498 12.5596C16.4498 11.813 16.2423 11.1156 15.8815 10.5207L15.8915 10.5382C15.5357 10.0417 14.9608 9.72255 14.3118 9.72255C14.2618 9.72255 14.2118 9.72421 14.1618 9.72838H14.1685C14.146 9.72754 14.1201 9.72671 14.0943 9.72671C13.5777 9.72671 13.1028 9.90418 12.727 10.2016L12.732 10.1983C12.3546 10.5041 12.0588 10.8949 11.8722 11.3439L11.8655 11.3631C11.7689 11.6589 11.7139 11.9988 11.7139 12.3521C11.7139 12.3921 11.7147 12.4321 11.7164 12.4721V12.4663V20H7.23546C7.25379 16.3767 7.26296 13.4389 7.26296 11.1865C7.26296 8.93407 7.25851 7.59012 7.24962 7.15464L7.23629 6.50058H11.7172V8.46192H11.6897C11.868 8.17447 12.0522 7.92534 12.2546 7.69205L12.248 7.69955C12.4821 7.44209 12.7337 7.20963 13.0045 7.00133L13.0178 6.99133C13.3544 6.73221 13.7494 6.52891 14.1776 6.40477L14.2026 6.39893C14.6509 6.26479 15.1666 6.1873 15.6999 6.1873H15.7657H15.7624C15.8215 6.1848 15.8907 6.18314 15.9598 6.18314C17.3604 6.18314 18.6219 6.77804 19.5059 7.72954L19.5084 7.73288C20.4538 8.76382 20.9265 10.2736 20.9265 12.2621L20.9248 12.263Z" fill="#FAFAFA"/>
</svg>
