<svg width="46" height="38" viewBox="0 0 46 38" fill="none" xmlns="http://www.w3.org/2000/svg">
<path d="M18.9722 11.6264C14.821 9.4057 10.501 9.47855 10.3192 9.47855C9.92544 9.48722 9.61349 9.81344 9.62181 10.2073C9.63084 10.6008 9.94981 10.9026 10.3505 10.9046C10.3944 10.8987 14.4763 10.8389 18.2995 12.8839C18.4067 12.941 18.5217 12.9682 18.6352 12.9682C18.8897 12.9682 19.1362 12.8318 19.2647 12.5915C19.4503 12.2444 19.3193 11.8123 18.9722 11.6264ZM18.9722 17.6553C14.821 15.4346 10.501 15.5091 10.3192 15.5074C9.92544 15.5161 9.61349 15.8423 9.62181 16.2362C9.63084 16.6295 9.94981 16.9346 10.3505 16.9335C10.3944 16.9297 14.4763 16.8681 18.2995 18.9128C18.4067 18.97 18.5217 18.9971 18.6352 18.9971C18.8897 18.9971 19.1362 18.8607 19.2647 18.6204C19.4503 18.2732 19.3193 17.8412 18.9722 17.6553ZM18.9722 23.6842C14.821 21.4635 10.501 21.5377 10.3192 21.5362C9.92544 21.545 9.61349 21.8712 9.62181 22.265C9.63084 22.6583 9.94981 22.9665 10.3505 22.9623C10.3944 22.9578 14.4763 22.8968 18.2995 24.9416C18.4067 24.9988 18.5217 25.0259 18.6352 25.0259C18.8897 25.0259 19.1362 24.8894 19.2647 24.6491C19.4503 24.3021 19.3193 23.87 18.9722 23.6842Z" fill="#0034EE"/>
<path d="M41.117 6.08357V0.0313739L40.0687 0.0104577C29.3532 -0.20405 24.7678 2.99633 23.0058 4.87817C21.3022 3.05658 16.9543 0 6.95455 0C6.62275 0 6.28405 0.00344607 5.94001 0.0104577L4.89172 0.0313739V6.08357H0V38H18.4215C19.0124 38 19.4911 37.5213 19.4911 36.9304C19.4911 36.3396 19.0124 35.8609 18.4215 35.8609H2.13913V8.2227H4.89172V31.4161L5.98256 31.3941C19.232 31.126 22.017 36.3127 22.0369 36.351C22.2193 36.7382 22.6036 36.9648 23.0047 36.9648C23.1575 36.9648 23.3128 36.9317 23.4601 36.8621C23.6252 36.7845 23.7564 36.6676 23.8581 36.5307C23.8716 36.5132 23.8848 36.4958 23.8971 36.4774C23.9124 36.4541 23.9267 36.4305 23.9402 36.4061C23.9479 36.3922 23.9573 36.3796 23.9646 36.3653C23.9907 36.3141 26.6426 31.3845 39.0558 31.3845C39.3723 31.3845 39.697 31.3879 40.0261 31.3942L41.1168 31.4162V8.2227H43.8687V35.8608H27.5864C26.9955 35.8608 26.5168 36.3394 26.5168 36.9303C26.5168 37.5212 26.9955 37.9999 27.5864 37.9999H46.0078V6.08357H41.117ZM7.03085 29.2452V2.13925C18.0524 2.15767 21.3383 6.07133 21.9344 6.946V33.1426C19.7229 31.3837 15.3357 29.2582 7.03085 29.2452ZM38.9778 29.2452C30.6734 29.2584 26.2854 31.3844 24.0735 33.1433V6.946C24.6682 6.0724 27.9518 2.15731 38.9778 2.13925V29.2452Z" fill="#0034EE"/>
<path d="M35.6894 9.4786C35.508 9.47824 31.1872 9.40658 27.0356 11.6264C26.6885 11.812 26.5577 12.244 26.7432 12.5915C26.8716 12.8317 27.1178 12.9682 27.3727 12.9682C27.4862 12.9682 27.6011 12.941 27.7083 12.884C31.2937 10.9666 35.1343 10.9043 35.6099 10.9043C35.6983 10.9043 35.666 10.9047 35.6732 10.9047C36.06 10.9047 36.3778 10.5952 36.3863 10.2066C36.3945 9.81325 36.0829 9.48727 35.6894 9.4786ZM35.6894 15.5075C35.508 15.5071 31.1872 15.4354 27.0356 17.6553C26.6885 17.8408 26.5577 18.2729 26.7432 18.6204C26.8716 18.8607 27.1178 18.9971 27.3727 18.9971C27.4862 18.9971 27.6011 18.9699 27.7083 18.9129C31.5169 16.8762 35.6155 16.9276 35.6586 16.9336C36.036 16.9385 36.3776 16.629 36.3863 16.2355C36.3945 15.842 36.0829 15.5162 35.6894 15.5075ZM35.6894 21.5363C35.508 21.5359 31.1872 21.4643 27.0356 23.6842C26.6885 23.8697 26.5577 24.3018 26.7432 24.6493C26.8716 24.8895 27.1178 25.026 27.3727 25.026C27.4862 25.026 27.6011 24.9989 27.7083 24.9418C31.2937 23.0244 35.1343 22.9621 35.6099 22.9621C35.6983 22.9618 35.666 22.9625 35.6732 22.9625C36.06 22.9625 36.3778 22.653 36.3863 22.2644C36.3945 21.8709 36.0829 21.5451 35.6894 21.5363Z" fill="#0034EE"/>
</svg>
