<?xml version="1.0" encoding="UTF-8"?>
<svg id="Layer_2" data-name="Layer 2" xmlns="http://www.w3.org/2000/svg" viewBox="0 0 214.252 138.015">
  <g id="Layer_1-2" data-name="Layer 1">
    <path d="M107.23,72.096c-19.682,0-38.214-3.617-52.18-10.186-14.422-6.778-22.363-15.963-22.363-25.862s7.94-19.084,22.363-25.863C69.019,3.617,87.552,0,107.23,0s38.211,3.617,52.18,10.186c14.422,6.78,22.363,15.965,22.363,25.863s-7.94,19.084-22.363,25.862c-13.966,6.569-32.498,10.186-52.18,10.186ZM75.136,37.936c1.002,17.064,15.041,30.386,32.095,30.386s31.093-13.322,32.095-30.386h-24.21l-7.69,18.612-7.687-18.612h-24.602ZM143.226,37.936c-.583,11.176-6.338,21.414-15.536,27.771,18.085-4.819,30.321-15.574,31.461-27.771h-15.925ZM55.307,37.936c1.143,12.196,13.379,22.954,31.464,27.771-9.199-6.357-14.953-16.595-15.536-27.771h-15.928ZM162.934,37.936c-.819,10.23-8.223,19.601-20.489,26.049,5.625-1.494,10.778-3.337,15.356-5.489,11.968-5.626,19.081-12.915,20.076-20.56h-14.944ZM36.58,37.936c.999,7.644,8.111,14.934,20.079,20.56,4.579,2.152,9.732,3.995,15.356,5.489-12.269-6.448-19.673-15.82-20.489-26.049h-14.947ZM96.582,20.414l10.843,26.246,10.846-26.246h4.084l-5.681,13.746h22.652c-1.002-17.064-15.041-30.384-32.095-30.384s-31.093,13.32-32.095,30.384h23.043l-5.681-13.746h4.084ZM177.878,34.16c-.996-7.643-8.108-14.932-20.076-20.56-4.576-2.151-9.729-3.994-15.356-5.489,12.266,6.448,19.67,15.82,20.489,26.049h14.944ZM159.151,34.16c-1.14-12.195-13.373-22.952-31.464-27.771,9.199,6.358,14.956,16.597,15.539,27.771h15.925ZM71.235,34.16c.583-11.174,6.341-21.413,15.539-27.771-18.091,4.819-30.324,15.574-31.467,27.771h15.928ZM51.527,34.16c.816-10.227,8.22-19.599,20.489-26.047-5.628,1.494-10.781,3.337-15.356,5.488-11.968,5.628-19.081,12.917-20.079,20.56h14.947Z" fill="#000" stroke-width="0"/>
    <g>
      <g>
        <path d="M3.428,129.863l-3.428-29.851h6.564l1.965,22.409h.084l11.33-22.409h6.815l-15.929,29.851H3.428Z" fill="#000" stroke-width="0"/>
        <path d="M23.12,111.404c.641-.905,1.421-1.637,2.341-2.195.92-.557,1.951-.954,3.094-1.191,1.142-.236,2.327-.355,3.554-.355.975,0,1.993.07,3.052.209,1.059.14,2.034.411,2.926.815.892.404,1.623.976,2.195,1.714.571.739.843,1.721.815,2.947,0,1.031-.153,2.244-.46,3.637l-1.923,8.696c-.112.391-.188.872-.23,1.442-.042.572-.063,1.066-.063,1.484,0,.363.069.781.209,1.254h-5.937v-2.132c-.809.92-1.798,1.596-2.969,2.028-1.171.432-2.383.648-3.637.648-1.171,0-2.195-.153-3.073-.46-.878-.306-1.61-.717-2.195-1.233-.585-.516-1.018-1.114-1.296-1.798-.278-.683-.418-1.4-.418-2.153,0-2.09.717-3.763,2.153-5.017,1.435-1.254,3.463-2.034,6.083-2.341,1.393-.167,2.606-.292,3.637-.376,1.031-.084,1.888-.216,2.571-.397.683-.181,1.192-.445,1.526-.794.334-.348.502-.871.502-1.568,0-.557-.125-1.003-.376-1.338-.251-.334-.564-.599-.941-.794-.376-.195-.781-.327-1.212-.397-.432-.069-.843-.105-1.233-.105-1.06,0-2.007.258-2.843.774-.836.516-1.352,1.317-1.547,2.404h-5.56c.195-1.366.613-2.501,1.254-3.407ZM31.983,120.309c-.864.098-1.728.174-2.592.23-.558.056-1.101.146-1.63.272-.53.126-.997.314-1.401.564-.404.251-.732.592-.982,1.024-.251.433-.376.983-.376,1.652,0,.809.327,1.415.983,1.819.654.404,1.414.606,2.279.606.92,0,1.693-.146,2.32-.439.627-.292,1.156-.669,1.589-1.129.432-.46.774-.982,1.024-1.567.251-.585.46-1.171.627-1.756l.585-2.09c-.753.446-1.561.718-2.425.815Z" fill="#000" stroke-width="0"/>
        <path d="M51.381,108.248l-.669,3.01h.084c1.923-2.397,4.445-3.595,7.567-3.595,4.208,0,6.313,1.938,6.313,5.811,0,.223-.028.509-.084.857-.056.349-.119.704-.188,1.066-.07.363-.14.704-.209,1.024-.07.321-.119.579-.146.774l-2.676,12.668h-5.937l2.634-12.668c.055-.334.132-.78.23-1.338.097-.557.146-.989.146-1.296,0-.641-.3-1.171-.899-1.589-.6-.418-1.248-.627-1.944-.627-.892,0-1.68.174-2.362.523-.683.349-1.269.802-1.756,1.359-.488.558-.892,1.199-1.212,1.923-.321.725-.564,1.463-.732,2.216l-2.425,11.497h-5.895l4.474-21.615h5.686Z" fill="#000" stroke-width="0"/>
        <path d="M81.441,108.248l-.92,3.972h-4.223l-2.216,10.744c-.056.223-.098.425-.125.606-.028.181-.042.313-.042.397,0,.391.063.69.188.899.126.209.286.37.481.481.195.112.411.175.648.188.237.014.466.021.69.021.724,0,1.435-.042,2.132-.125l-1.003,4.557c-.613.056-1.227.105-1.839.146-.613.042-1.241.063-1.881.063-.697,0-1.387-.063-2.07-.188-.683-.125-1.296-.348-1.839-.669-.544-.32-.976-.759-1.296-1.317-.321-.557-.467-1.282-.439-2.174,0-.278.027-.592.084-.941.055-.348.125-.717.209-1.108l2.425-11.581h-3.888l.92-3.972h3.805l1.338-6.564h5.937l-1.338,6.564h4.264Z" fill="#000" stroke-width="0"/>
        <path d="M83.347,111.404c.641-.905,1.421-1.637,2.341-2.195.92-.557,1.951-.954,3.094-1.191,1.142-.236,2.327-.355,3.554-.355.975,0,1.993.07,3.052.209,1.059.14,2.034.411,2.926.815.892.404,1.623.976,2.195,1.714.571.739.843,1.721.815,2.947,0,1.031-.153,2.244-.46,3.637l-1.923,8.696c-.112.391-.188.872-.23,1.442-.042.572-.063,1.066-.063,1.484,0,.363.069.781.209,1.254h-5.937v-2.132c-.809.92-1.798,1.596-2.969,2.028-1.171.432-2.383.648-3.637.648-1.171,0-2.195-.153-3.073-.46-.878-.306-1.61-.717-2.195-1.233-.585-.516-1.018-1.114-1.296-1.798-.278-.683-.418-1.4-.418-2.153,0-2.09.717-3.763,2.153-5.017,1.435-1.254,3.463-2.034,6.083-2.341,1.393-.167,2.606-.292,3.637-.376,1.031-.084,1.888-.216,2.571-.397.683-.181,1.192-.445,1.526-.794.334-.348.502-.871.502-1.568,0-.557-.125-1.003-.376-1.338-.251-.334-.564-.599-.941-.794-.376-.195-.781-.327-1.212-.397-.432-.069-.843-.105-1.233-.105-1.06,0-2.007.258-2.843.774-.836.516-1.352,1.317-1.547,2.404h-5.56c.195-1.366.613-2.501,1.254-3.407ZM92.211,120.309c-.864.098-1.728.174-2.592.23-.558.056-1.101.146-1.63.272-.53.126-.997.314-1.401.564-.404.251-.732.592-.982,1.024-.251.433-.376.983-.376,1.652,0,.809.327,1.415.983,1.819.654.404,1.414.606,2.279.606.92,0,1.693-.146,2.32-.439.627-.292,1.156-.669,1.589-1.129.432-.46.774-.982,1.024-1.567.251-.585.46-1.171.627-1.756l.585-2.09c-.753.446-1.561.718-2.425.815Z" fill="#000" stroke-width="0"/>
        <path d="M120.807,132.915c-.613,1.171-1.4,2.132-2.362,2.885-.962.753-2.105,1.31-3.428,1.672-1.324.362-2.878.544-4.662.544-1.087,0-2.181-.125-3.282-.377-1.101-.251-2.09-.655-2.968-1.212-.878-.558-1.589-1.282-2.132-2.174-.543-.892-.815-1.993-.815-3.303h5.895c-.028.557.069,1.031.293,1.421.223.39.523.711.899.962.376.251.801.431,1.275.543.474.111.947.167,1.421.167.947,0,1.735-.195,2.362-.585.627-.391,1.164-.92,1.61-1.589.445-.669.822-1.463,1.129-2.383.306-.92.613-1.895.92-2.927l-.084-.084c-1.533,2.035-3.512,3.052-5.937,3.052-1.282,0-2.439-.209-3.47-.627-1.031-.418-1.902-1.017-2.613-1.798-.711-.78-1.261-1.707-1.651-2.78-.391-1.072-.585-2.279-.585-3.616,0-1.588.244-3.156.732-4.703.487-1.547,1.198-2.94,2.132-4.181.933-1.24,2.076-2.243,3.428-3.01,1.352-.766,2.891-1.15,4.62-1.15,1.505,0,2.829.292,3.972.878,1.143.585,2.021,1.588,2.634,3.01h.084l.669-3.303h5.686l-4.306,20.486c-.363,1.616-.851,3.01-1.463,4.181ZM111.985,112.93c-.752.53-1.38,1.192-1.881,1.986s-.885,1.672-1.15,2.634c-.265.961-.397,1.875-.397,2.738,0,.641.076,1.248.23,1.819.153.572.397,1.08.732,1.526.334.446.752.794,1.254,1.045.502.251,1.101.377,1.798.377,1.059,0,1.986-.258,2.78-.774.794-.516,1.449-1.171,1.965-1.965.515-.794.905-1.679,1.171-2.655.264-.975.397-1.923.397-2.843,0-1.365-.349-2.488-1.045-3.365-.697-.878-1.77-1.317-3.219-1.317-1.003,0-1.882.265-2.634.794Z" fill="#000" stroke-width="0"/>
        <path d="M131.483,120.874v.878c0,1.254.39,2.272,1.171,3.052.78.78,1.979,1.171,3.595,1.171.585,0,1.108-.09,1.568-.272.46-.181.863-.411,1.212-.69.348-.278.655-.599.92-.961.265-.362.508-.711.732-1.045h5.937c-.474,1.227-1.031,2.299-1.672,3.219-.642.92-1.408,1.693-2.299,2.32-.892.627-1.93,1.094-3.115,1.401-1.185.306-2.558.46-4.118.46-1.45,0-2.766-.195-3.951-.585-1.185-.39-2.195-.983-3.031-1.777-.836-.794-1.484-1.777-1.944-2.947-.46-1.171-.69-2.536-.69-4.097,0-1.728.278-3.393.836-4.996.557-1.602,1.344-3.024,2.362-4.264,1.017-1.24,2.264-2.23,3.742-2.968,1.477-.738,3.136-1.108,4.975-1.108,1.505,0,2.878.195,4.118.585,1.24.391,2.3.983,3.177,1.777.878.794,1.561,1.784,2.049,2.968.487,1.185.732,2.557.732,4.118,0,1.06-.112,2.188-.334,3.387h-15.929c-.028.14-.042.265-.042.376ZM141.914,115.083c-.098-.544-.286-1.038-.564-1.484-.279-.445-.683-.801-1.212-1.066-.53-.265-1.227-.397-2.09-.397-.836,0-1.575.125-2.216.376-.642.251-1.199.586-1.672,1.003-.474.418-.871.906-1.192,1.463-.321.558-.592,1.143-.815,1.756h9.908c0-.557-.049-1.108-.146-1.652Z" fill="#000" stroke-width="0"/>
      </g>
      <path d="M163.023,129.218l-.261.877h-13.235l.332-.877c1.328-.032,2.206-.142,2.633-.332.696-.269,1.21-.64,1.542-1.115.522-.743,1.059-2.071,1.613-3.985l5.598-19.401c.474-1.613.712-2.83.712-3.653,0-.411-.103-.759-.308-1.043-.206-.284-.518-.502-.937-.652-.419-.15-1.237-.226-2.455-.226l.284-.877h12.428l-.261.877c-1.012-.015-1.763.095-2.253.332-.712.317-1.253.767-1.625,1.352-.372.585-.85,1.882-1.435,3.89l-5.574,19.401c-.506,1.787-.759,2.925-.759,3.415,0,.395.098.732.296,1.008.198.277.514.49.949.641.435.15,1.34.273,2.716.368Z" fill="#000" stroke-width="0"/>
      <path d="M175.999,108.631l-3.154,10.792c2.956-4.412,5.222-7.313,6.795-8.705,1.573-1.391,3.087-2.087,4.542-2.087.79,0,1.443.261,1.957.783.514.522.771,1.202.771,2.04,0,.949-.229,2.214-.688,3.795l-2.894,9.985c-.332,1.154-.498,1.858-.498,2.111,0,.222.063.407.19.557.127.15.261.225.403.225.189,0,.418-.103.688-.308.838-.664,1.755-1.676,2.751-3.036l.735.451c-1.471,2.103-2.862,3.605-4.174,4.506-.917.617-1.74.925-2.467.925-.585,0-1.052-.178-1.399-.534-.348-.356-.522-.834-.522-1.435,0-.759.269-2.064.806-3.913l2.751-9.535c.348-1.186.522-2.111.522-2.775,0-.316-.103-.573-.308-.771-.206-.198-.459-.296-.759-.296-.443,0-.972.19-1.589.569-1.17.711-2.388,1.885-3.652,3.522-1.265,1.636-2.601,3.728-4.009,6.273-.743,1.344-1.36,2.815-1.85,4.411l-1.186,3.913h-3.558l4.317-14.848c.506-1.787.759-2.862.759-3.226,0-.348-.139-.652-.415-.913-.277-.261-.621-.391-1.032-.391-.19,0-.522.032-.996.095l-.901.142-.142-.854,8.206-1.47Z" fill="#000" stroke-width="0"/>
      <path d="M206.383,124.925c-1.645,1.977-3.305,3.427-4.981,4.352s-3.447,1.387-5.313,1.387c-2.245,0-3.996-.632-5.254-1.898-1.257-1.265-1.885-2.965-1.885-5.099,0-2.419.676-4.799,2.028-7.139,1.352-2.34,3.17-4.242,5.455-5.704,2.285-1.463,4.526-2.194,6.724-2.194,1.723,0,3.012.36,3.866,1.079.854.72,1.281,1.601,1.281,2.645,0,.981-.3,1.818-.901,2.514-.443.538-.988.806-1.636.806-.49,0-.898-.158-1.222-.474-.324-.316-.486-.712-.486-1.186,0-.3.059-.577.178-.83.118-.253.363-.557.735-.913.371-.356.597-.613.676-.771.079-.158.119-.324.119-.498,0-.332-.15-.609-.451-.83-.459-.316-1.107-.474-1.945-.474-1.55,0-3.083.546-4.601,1.636-1.518,1.091-2.815,2.641-3.89,4.649-1.297,2.435-1.945,4.87-1.945,7.305,0,1.613.458,2.89,1.376,3.831.917.941,2.166,1.411,3.747,1.411,1.217,0,2.423-.304,3.617-.913,1.194-.609,2.534-1.711,4.02-3.309l.688.617Z" fill="#000" stroke-width="0"/>
      <path d="M214.088,128.354c-1.339.606-1.952,1.219-2.558,2.558-.099.218-.407.218-.506,0-.606-1.339-1.219-1.952-2.558-2.558-.218-.099-.218-.407,0-.506,1.339-.606,1.952-1.219,2.558-2.558.099-.218.407-.218.506,0,.606,1.339,1.219,1.952,2.558,2.558.218.099.218.407,0,.506Z" fill="#000" stroke-width="0"/>
    </g>
  </g>
</svg>