<?xml version="1.0" encoding="UTF-8"?>
<svg id="Capa_1" data-name="Capa 1" xmlns="http://www.w3.org/2000/svg" viewBox="0 0 1498.9 519.07">
  <defs>
    <style>
      .cls-1 {
        fill: #0091bf;
      }

      .cls-2 {
        fill: #007091;
      }

      .cls-3 {
        fill: #0092c0;
      }

      .cls-4 {
        fill: #fdfdfd;
      }

      .cls-5 {
        fill: #034354;
      }

      .cls-6 {
        fill: #fcfcfc;
      }
    </style>
  </defs>
  <path class="cls-1" d="m917.59,426.35c-2.49,33.96-20.55,57.59-49.96,72.7-17.8,9.14-36.69,15.99-56.98,17.77-2.98.26-5.92.9-8.87,1.37-1.34.14-2.67.28-4.01.42-21.63-.08-43.42,1.44-64.85-.66-25.81-2.53-50.47-10.28-71.08-27.44-8.12-6.76-13.69-15.51-17.78-24.89-2.28-5.22-2.06-11.59-2.68-17.47-2.18-20.77,6.22-37.6,20.18-52.04,5.73-5.93,12.24-11.11,18.87-17.06-2.62-2.21-4.86-4.09-7.08-5.98-16.1-13.7-21.48-31.09-18.92-51.83,1.84-14.86,9.72-26.5,17.9-38.16,3.23-4.61,6.84-8.95,10.57-13.8-13.82-16.67-24.08-34.58-23.08-56.93,2.78-3.98,2.76-7.97.06-11.97,1-39.41,21.01-66.48,55.88-82.38,28.97-13.2,59.65-14.72,90.82-8.35,7.42,1.52,15.08,2.43,22.65,2.52,26.3.3,52.62.11,78.92.11h11.22c.48,16.78.32,32.85.1,49.87-14.46.25-27.99.49-41.53.72-3.57.96-1.76,2.3-.25,3.62,10.92,18.63,12.12,38.24,8.64,59.37-6.49,39.47-31.81,60.68-67.36,71.77-19.71,6.15-40.49,6.44-61.12,4.95-.73,0-1.45-.02-2.18-.02-9.43-2.42-18.86-4.83-28.73-7.36-9.42,8.28-13.12,18.62-9.66,28.09,4.13,11.3,16.25,18.89,30.46,19.08,1.34.04,2.68.08,4.02.12,27.26,1.22,54.62,1.42,81.75,4,20.73,1.97,40.92,7.58,58.19,20.5,16.54,12.37,24.2,29.3,25.9,49.41-2.53,3.31-2.52,6.63-.03,9.96h.02Zm-143.27,44.84c14.67-.42,29.14-1.25,42.93-6.89,14.54-5.95,25.45-14.14,27.25-31.81,1.47-14.42-2.89-25.21-16.26-29.44-7.47-2.36-15.29-4.44-23.06-4.88-20.58-1.16-41.2-1.49-61.82-1.79-3.05-.04-6.76,1.13-9.06,3.05-5.58,4.66-11.16,9.61-15.56,15.34-7.84,10.2-8.97,22.11-4.45,33.9,4.66,12.15,16.4,16.31,27.4,19.14,10.47,2.69,21.72,2.37,32.63,3.37h0Zm-2.5-214.65c32.5,1.76,52.19-20.89,52.15-50.73-.05-35.24-20.29-51.12-50.65-50.86-32.37.28-49.52,22.49-49.61,51.89-.04,13.87,3.08,26.49,13.37,36.39,9.99,9.61,21.73,15,34.74,13.31h0Z"/>
  <path class="cls-3" d="m1022.22,147.15c6.68-6.5,12.78-13.77,20.14-19.37,28.13-21.38,59.2-26.41,93.32-16.72,24.05,6.83,40.35,21.81,49.01,44.37,4.79,12.47,8.5,26.22,8.68,39.45.92,66.65.53,133.31.57,199.97,0,1.28-.37,2.56-.67,4.48h-67.59c-.18-3.78-.48-7.31-.48-10.84-.03-56.66.17-113.32-.2-169.98-.06-10.15-1.63-20.46-3.87-30.39-3.48-15.46-20.78-24.65-38.02-21.06-9.65,2.01-18.65,5.88-25.51,12.96-10.64,10.98-20.56,22.66-30.91,33.94-3.54,3.86-3.45,8.4-3.45,13.11.03,53.66.02,107.32.02,160.98v11.34h-67.64c-.28-.24-.55-.43-.78-.68-.21-.23-.5-.5-.53-.79-.22-1.64-.53-3.29-.53-4.93-.02-130.3-.02-260.6-.02-390.74,7.29-2.33,49.57-3.06,69.31-1.18-.11,38.33,1.35,76.8-1.15,115.28-.08,1.34-.16,2.68-.25,4.02-.55,8.65-1.09,17.3-1.64,25.95-.31.95-.63,1.9-.94,2.86,1.04-.67,2.09-1.34,3.13-2.01v-.02Z"/>
  <path class="cls-4" d="m513.87,4.63c-2.44,6.78-4.5,13.72-7.38,20.31-12.08,27.65-24.61,55.1-36.58,82.8-16.24,37.56-32.19,75.25-48.12,112.95-7.84,18.56-15.21,37.32-23.06,55.87-6.96,16.44-14.36,32.69-21.45,49.08-7.72,17.82-15.29,35.71-22.98,53.54-8.49,19.69-17.05,39.36-25.58,59.04-3.34,7.72-6.68,15.44-10.18,23.5h-67.09c3.97-9.53,7.65-18.54,11.48-27.5,11.61-27.16,23.26-54.3,34.93-81.43,13.92-32.36,27.97-64.67,41.79-97.08,11.69-27.42,23-55,34.75-82.39,9.88-23.04,20.26-45.86,30.21-68.86,9.79-22.65,19.3-45.43,28.97-68.14,4.97-11.67,10.01-23.31,15.29-35.6h64.81c.07,1.31.13,2.61.2,3.92h0Z"/>
  <path class="cls-4" d="m549.63,270.34c-.02-10.65-.04-21.3-.07-31.95,3.42-3.04,2.35-4.95-1.55-6.14-1.18-16.28-5.92-31.24-15.74-44.53-8.51-11.51-20.6-16.58-33.89-19.38-6.72-1.41-13.65-1.79-21.43-2.75,1.04-3.9,1.67-7.99,3.2-11.71,5.77-14.04,11.76-28,17.81-41.93,2.93-6.73,8.66-4.37,13.76-3.83,2.11.59,4.22,1.17,6.33,1.76,26.43,4.33,49.92,14.96,68.62,34.33,13.07,13.55,21.3,30.41,26.85,48.24,8.49,27.3,10.81,55.35,7.8,83.81-.45,2.05-.89,4.1-1.34,6.15-3.06,25.56-11.7,49.18-26.42,70.17-15.01,21.4-35.49,35.21-60.38,44.25-26.89,9.76-53.79,9.28-81.32,6.77-17.97-1.64-34.13-8.17-49.44-17.17-4.49-2.64-8.82-5.73-12.6-9.29-1.33-1.26-1.69-4.86-.94-6.79,4.4-11.44,9.2-22.73,13.99-34.02,4.54-10.71,9.18-21.38,13.9-32.02.89-2.02,2.35-3.78,3.01-4.82,5.03,7.78,9.88,15.72,15.16,23.38,14.9,21.63,41.82,25.69,63.49,21.04,28.49-6.11,40.47-27.34,47.24-52.94,1.25-4.72,1.58-9.68,2.34-14.53,3.88-1.15,4.98-3.04,1.62-6.12v.02Z"/>
  <path class="cls-6" d="m0,245.22c62.99-52.85,126-105.73,190.05-159.48,2.11,1.64,4.84,3.29,6.97,5.51,12.21,12.68,24.27,25.49,37.23,39.15-46.05,37.82-92.1,75.65-139.24,114.36,46.24,38.35,92.55,76.76,139.51,115.71-14.69,15.27-28.84,29.98-43.61,45.33C126.65,351.75,63.42,298.56,0,245.21h0Z"/>
  <path class="cls-6" d="m1264.66,130.18c15.56-15.28,29.73-29.19,44.78-43.98,62.33,52.32,125.51,105.36,189.46,159.04-63.99,53.84-127.14,106.97-190.84,160.56-14.49-15.02-28.25-29.29-42.85-44.43,1.79-2.08,3.55-4.81,5.94-6.79,13.62-11.34,27.35-22.53,41.1-33.7,8.66-7.03,17.5-13.84,26.1-20.94,13.97-11.54,27.77-23.28,41.73-34.83,5.56-4.6,11.39-8.86,16.99-13.41,1.97-1.6,3.62-3.61,6.3-6.34-46.56-38.66-92.45-76.77-138.71-115.18h0Z"/>
  <path class="cls-2" d="m659.89,200.37c2.7,4,2.73,7.99-.06,11.97.02-3.99.04-7.98.06-11.97Z"/>
  <path class="cls-5" d="m755.68,302.56c.73,0,1.45.01,2.18.02-.73,0-1.45-.02-2.18-.02Z"/>
</svg>