<svg width="38" height="38" viewBox="0 0 38 38" fill="none" xmlns="http://www.w3.org/2000/svg">
<path d="M37.9999 19.0263C37.9939 23.4162 36.4678 27.6686 33.6812 31.0607C30.8945 34.4528 27.0193 36.7753 22.714 37.6334C18.4087 38.4916 13.9392 37.8324 10.0649 35.7679C6.19068 33.7035 3.15086 30.3612 1.4621 26.309C-0.22665 22.2569 -0.460125 17.745 0.801362 13.5402C2.06285 9.33541 4.74146 5.69718 8.38192 3.24387C12.0224 0.790562 16.4 -0.326431 20.7709 0.0827378C25.1417 0.491907 29.236 2.40199 32.3579 5.48834C32.4024 5.54472 32.4425 5.60441 32.4779 5.6669C32.556 5.75993 32.6233 5.86157 32.6784 5.96985C32.7165 6.08452 32.7401 6.20351 32.7487 6.32404C32.7656 6.38803 32.7783 6.45305 32.7867 6.51869C32.7792 6.65262 32.7541 6.78498 32.7121 6.91239C32.7048 6.96513 32.6945 7.01741 32.6813 7.06899C32.6226 7.19112 32.5478 7.30482 32.4589 7.40707C32.4299 7.45793 32.3977 7.50682 32.3623 7.55343L20.0098 19.9059C19.7338 20.1725 19.3641 20.32 18.9803 20.3167C18.5966 20.3133 18.2295 20.1594 17.9582 19.8881C17.6868 19.6167 17.5329 19.2496 17.5296 18.8659C17.5262 18.4821 17.6737 18.1125 17.9403 17.8364L21.8422 13.9331C20.7564 13.3184 19.5027 13.0666 18.2638 13.2145C17.0249 13.3624 15.8656 13.9023 14.9551 14.7554C14.0446 15.6085 13.4305 16.7301 13.2023 17.9568C12.9741 19.1834 13.1438 20.4509 13.6866 21.5744C14.2294 22.6978 15.117 23.6184 16.2198 24.202C17.3226 24.7855 18.5831 25.0015 19.8173 24.8183C21.0514 24.6351 22.1948 24.0624 23.0806 23.1838C23.9665 22.3051 24.5484 21.1664 24.7415 19.9337C24.7703 19.7435 24.8364 19.5609 24.9358 19.3962C25.0352 19.2315 25.1661 19.0881 25.3209 18.974C25.6337 18.7436 26.0252 18.6468 26.4092 18.705C26.5994 18.7339 26.7821 18.7999 26.9467 18.8993C27.1114 18.9987 27.2549 19.1296 27.369 19.2844C27.4831 19.4393 27.5655 19.6151 27.6117 19.8019C27.6578 19.9886 27.6667 20.1826 27.6379 20.3728C27.3482 22.2603 26.4518 24.0023 25.0843 25.3351C23.7167 26.668 21.9523 27.5194 20.0579 27.7605C18.1636 28.0015 16.2422 27.6193 14.5844 26.6714C12.9265 25.7236 11.6224 24.2617 10.8692 22.5069C10.1159 20.752 9.95458 18.7997 10.4095 16.945C10.8644 15.0903 11.9108 13.4341 13.3905 12.227C14.8702 11.0198 16.7027 10.3272 18.611 10.254C20.5192 10.1808 22.3994 10.7309 23.9673 11.8212L29.201 6.58601C26.2005 4.11526 22.4082 2.81208 18.5227 2.91659C14.6373 3.02109 10.9205 4.52624 8.05714 7.15471C5.1938 9.78318 3.37681 13.3579 2.94095 17.2202C2.50509 21.0826 3.47972 24.9723 5.68528 28.1728C7.89083 31.3733 11.1787 33.6689 14.9431 34.6367C18.7076 35.6045 22.695 35.1792 26.1706 33.4393C29.6463 31.6994 32.3761 28.762 33.8571 25.1683C35.338 21.5747 35.4704 17.5669 34.2298 13.8833C34.1087 13.5173 34.1369 13.1183 34.3082 12.773C34.4796 12.4276 34.7803 12.1638 35.145 12.0389C35.5098 11.914 35.909 11.938 36.2562 12.1058C36.6033 12.2736 36.8702 12.5715 36.9989 12.9349C37.6661 14.8963 38.0043 16.9545 37.9999 19.0263Z" fill="#0034EE"/>
</svg>
