<svg width="47" height="47" viewBox="0 0 47 47" fill="none" xmlns="http://www.w3.org/2000/svg">
<g clip-path="url(#clip0_148_17)">
<path d="M23.5001 7.79712C16.0119 7.79712 9.91986 13.8892 9.91986 21.3773C9.91986 23.9767 10.657 26.5032 12.0515 28.6841C13.2506 30.5592 14.8839 32.1058 16.8089 33.1969V35.6466V40.309C16.8089 43.9985 19.8105 47.0001 23.5001 47.0001C27.1896 47.0001 30.1912 43.9985 30.1912 40.309V33.1969C32.1162 32.1058 33.7494 30.5592 34.9486 28.6841C36.3431 26.5033 37.0802 23.9767 37.0802 21.3773C37.0801 13.8892 30.9882 7.79712 23.5001 7.79712ZM27.4473 39.1918H19.5528V37.0185H27.4473V39.1918ZM23.5001 44.2561C21.9033 44.2561 20.5261 43.3026 19.905 41.9356H27.0952C26.4741 43.3026 25.0967 44.2561 23.5001 44.2561ZM28.2207 31.134C27.7477 31.3633 27.4473 31.8428 27.4473 32.3685V34.2746H19.5528V32.3685C19.5528 31.8427 19.2524 31.3633 18.7794 31.134C15.0072 29.305 12.6638 25.5664 12.6638 21.3772C12.6638 15.4021 17.5249 10.5409 23.5001 10.5409C29.4754 10.5409 34.3365 15.4021 34.3365 21.3772C34.3363 25.5665 31.9929 29.305 28.2207 31.134Z" fill="#0034EE"/>
<path d="M23.8847 20.889C23.5153 20.7571 22.8275 20.5114 22.7103 20.2548C22.6259 20.0703 22.6961 19.8219 22.8669 19.7013C23.1329 19.5135 23.6719 19.5011 24.0436 19.6742C24.1979 19.746 24.2832 19.8355 24.3383 19.9831C24.5592 20.5746 25.2176 20.875 25.8093 20.6542C26.4009 20.4334 26.7014 19.7748 26.4806 19.1833C26.2154 18.473 25.7064 17.926 25.0088 17.6012C24.8898 17.5458 24.7674 17.4988 24.6434 17.4571V17.1917C24.6434 16.5604 24.1314 16.0485 23.5001 16.0485C22.8687 16.0485 22.3568 16.5604 22.3568 17.1917V17.434C22.0653 17.5287 21.7913 17.6616 21.5477 17.8335C20.4881 18.582 20.0939 20.0317 20.6309 21.2057C21.1496 22.3399 22.3802 22.7796 23.1155 23.0422C23.4849 23.1742 24.1726 23.4199 24.2899 23.6764C24.3743 23.861 24.304 24.1093 24.1333 24.23C23.8672 24.4177 23.3282 24.4302 22.9565 24.2571C22.8022 24.1853 22.717 24.0958 22.6618 23.9482C22.4409 23.3567 21.7824 23.0561 21.1908 23.277C20.5992 23.4979 20.2988 24.1564 20.5196 24.748C20.7847 25.4582 21.2937 26.0053 21.9913 26.3301C22.1105 26.3856 22.2327 26.4339 22.3568 26.4757V26.7823C22.3568 27.4137 22.8687 27.9256 23.5001 27.9256C24.1314 27.9256 24.6434 27.4137 24.6434 26.7823V26.4959C24.9346 26.4012 25.2091 26.2696 25.4524 26.0976C26.512 25.3492 26.9062 23.8995 26.3693 22.7255C25.8506 21.5913 24.6199 21.1517 23.8847 20.889Z" fill="#0034EE"/>
<path d="M42.866 11.1809C42.4871 10.5247 41.6481 10.3 40.9919 10.6788L38.2413 12.2669C37.585 12.6457 37.3602 13.4848 37.7391 14.1409C37.9932 14.5811 38.4544 14.8271 38.9285 14.8271C39.1613 14.8271 39.3972 14.7678 39.6132 14.6431L42.3639 13.055C43.02 12.6762 43.2448 11.8371 42.866 11.1809Z" fill="#0034EE"/>
<path d="M31.7209 8.12287C31.9369 8.24762 32.1728 8.30689 32.4056 8.30689C32.8797 8.30689 33.3409 8.06086 33.595 7.62074L35.183 4.87009C35.562 4.21394 35.3371 3.37486 34.6809 2.99602C34.0246 2.617 33.1856 2.84191 32.8068 3.49815L31.2188 6.24871C30.8399 6.90495 31.0647 7.74394 31.7209 8.12287Z" fill="#0034EE"/>
<path d="M23.5001 5.9201C24.2577 5.9201 24.872 5.30584 24.872 4.54816V1.37194C24.872 0.614263 24.2577 0 23.5001 0C22.7424 0 22.1281 0.614263 22.1281 1.37194V4.54816C22.1281 5.30584 22.7423 5.9201 23.5001 5.9201Z" fill="#0034EE"/>
<path d="M13.405 7.62066C13.6591 8.06087 14.1203 8.30681 14.5944 8.30681C14.8272 8.30681 15.0631 8.24754 15.2791 8.12279C15.9353 7.74395 16.1602 6.90487 15.7812 6.24872L14.1932 3.49807C13.8142 2.84182 12.9752 2.6171 12.3191 2.99594C11.6628 3.37478 11.438 4.21386 11.817 4.87001L13.405 7.62066Z" fill="#0034EE"/>
<path d="M8.75884 12.2669L6.00819 10.6789C5.35195 10.2998 4.51296 10.5248 4.13412 11.181C3.75528 11.8371 3.98001 12.6762 4.63625 13.0551L7.3869 14.6432C7.60294 14.768 7.83882 14.8272 8.07159 14.8272C8.54573 14.8272 9.00689 14.5812 9.26097 14.1411C9.63981 13.4848 9.41499 12.6458 8.75884 12.2669Z" fill="#0034EE"/>
</g>
<defs>
<clipPath id="clip0_148_17">
<rect width="47" height="47" fill="white"/>
</clipPath>
</defs>
</svg>
