<svg width="20" height="20" viewBox="0 0 20 20" fill="none" xmlns="http://www.w3.org/2000/svg">
<path d="M13.3344 10V9.99917C13.3344 8.15864 11.8422 6.66639 10.0017 6.66639C8.16114 6.66639 6.66889 8.15864 6.66889 9.99917C6.66889 11.8397 8.16114 13.3319 10.0017 13.3319C10.9215 13.3319 11.7547 12.9587 12.3579 12.3563C12.9603 11.7722 13.3344 10.9548 13.3344 10.05C13.3344 10.0325 13.3344 10.015 13.3336 9.9975L13.3344 10ZM15.1341 10C15.1241 12.8154 12.8395 15.0942 10.0225 15.0942C7.19963 15.0942 4.91085 12.8054 4.91085 9.9825C4.91085 7.15964 7.19963 4.87085 10.0225 4.87085C11.4339 4.87085 12.712 5.44326 13.6369 6.3681C14.5609 7.26795 15.135 8.52358 15.135 9.91418C15.135 9.94418 15.135 9.975 15.1341 10.005V10.0008V10ZM16.5397 4.66256V4.66422C16.5397 5.32661 16.0023 5.86402 15.3399 5.86402C14.6776 5.86402 14.1401 5.32661 14.1401 4.66422C14.1401 4.00183 14.6776 3.46442 15.3399 3.46442C15.6716 3.46442 15.9715 3.59857 16.1881 3.81603C16.4014 4.02516 16.5339 4.31678 16.5339 4.63923V4.66339L16.5397 4.66256ZM10.0075 1.79637L9.01183 1.7897C8.4086 1.78526 7.95062 1.78526 7.63789 1.7897C7.32517 1.79415 6.90635 1.8072 6.38144 1.82886C5.89402 1.84553 5.43159 1.89385 4.97917 1.9705L5.03999 1.96217C4.68589 2.0205 4.37177 2.10382 4.07099 2.21463L4.10682 2.20297C3.23696 2.55707 2.55957 3.23363 2.2138 4.08099L2.20547 4.10348C2.10632 4.36844 2.023 4.68255 1.96884 5.00583L1.96467 5.03666C1.89635 5.42743 1.84803 5.88985 1.83219 6.36061L1.83136 6.3781C1.8097 6.90357 1.79664 7.32239 1.7922 7.63456C1.78776 7.94673 1.78776 8.40471 1.7922 9.0085C1.79664 9.61229 1.79887 9.94418 1.79887 10.0042C1.79887 10.0642 1.79664 10.396 1.7922 10.9998C1.78776 11.6036 1.78776 12.0616 1.7922 12.3738C1.79664 12.6859 1.8097 13.1048 1.83136 13.6302C1.84803 14.1176 1.89635 14.5801 1.973 15.0325L1.96467 14.9717C2.023 15.3258 2.10632 15.6399 2.21713 15.9407L2.20547 15.9048C2.55957 16.7747 3.23613 17.4521 4.08349 17.7979L4.10598 17.8062C4.37094 17.9053 4.68505 17.9887 5.00833 18.0428L5.03916 18.047C5.42993 18.1153 5.89235 18.1636 6.36227 18.1795L6.37977 18.1803C6.90524 18.202 7.32406 18.215 7.63623 18.2195C7.9484 18.2239 8.40638 18.2239 9.01016 18.2195L10 18.1995L10.9957 18.2061C11.5989 18.2106 12.0569 18.2106 12.3696 18.2061C12.6823 18.2017 13.1011 18.1886 13.6261 18.167C14.1135 18.1503 14.5759 18.102 15.0283 18.0253L14.9675 18.0337C15.3216 17.9753 15.6357 17.892 15.9365 17.7812L15.9007 17.7929C16.7705 17.4388 17.4479 16.7622 17.7937 15.9148L17.802 15.8924C17.9012 15.6274 17.9845 15.3133 18.0387 14.99L18.0428 14.9592C18.1111 14.5684 18.1595 14.106 18.1753 13.6361L18.1761 13.6186C18.1978 13.0931 18.2109 12.6743 18.2153 12.3621C18.2197 12.0499 18.2197 11.592 18.2153 10.9882C18.2109 10.3844 18.2086 10.0525 18.2086 9.9925C18.2086 9.93251 18.2109 9.60062 18.2153 8.99683C18.2197 8.39304 18.2197 7.93507 18.2153 7.6229C18.2109 7.31073 18.1978 6.89191 18.1761 6.36644C18.1595 5.87902 18.1111 5.4166 18.0345 4.96417L18.0428 5.025C17.9845 4.67089 17.9012 4.35677 17.7904 4.05599L17.802 4.09182C17.4479 3.22196 16.7714 2.54458 15.924 2.1988L15.9015 2.19047C15.6366 2.09132 15.3224 2.008 14.9992 1.95384L14.9683 1.94968C14.5776 1.88135 14.1151 1.83303 13.6452 1.8172L13.6277 1.81636C13.1023 1.7947 12.6834 1.78165 12.3713 1.7772C12.0591 1.77276 11.6011 1.77276 10.9973 1.7772L10.0075 1.79637ZM20 10C20 11.9874 19.9778 13.3631 19.9333 14.1268C19.9375 14.211 19.9408 14.3093 19.9408 14.4076C19.9408 17.4629 17.4638 19.94 14.4084 19.94C14.3093 19.94 14.211 19.9375 14.1135 19.9325L14.1268 19.9333C13.363 19.9778 11.9874 20 10 20C8.01255 20 6.63695 19.9778 5.87319 19.9333C5.78903 19.9375 5.69072 19.9408 5.5924 19.9408C2.53708 19.9408 0.05999 17.4638 0.05999 14.4084C0.05999 14.3093 0.0624896 14.211 0.0674887 14.1135L0.0666555 14.1268C0.0222185 13.3631 0 11.9874 0 10C0 8.01255 0.0222185 6.63695 0.0666555 5.87319C0.0624896 5.78903 0.0591568 5.69072 0.0591568 5.5924C0.0591568 2.53708 2.53624 0.05999 5.59157 0.05999C5.69072 0.05999 5.78903 0.0624896 5.88652 0.0674888L5.87319 0.0666556C6.63695 0.0222185 8.01255 0 10 0C11.9874 0 13.363 0.0222185 14.1268 0.0666556C14.211 0.0624896 14.3093 0.0591568 14.4076 0.0591568C17.4629 0.0591568 19.94 2.53624 19.94 5.59157C19.94 5.69072 19.9375 5.78903 19.9325 5.88652L19.9333 5.87319C19.9778 6.63639 20 8.012 20 10Z" fill="#FAFAFA"/>
</svg>
