<?xml version="1.0" encoding="UTF-8"?>
<svg id="Capa_1" data-name="Capa 1" xmlns="http://www.w3.org/2000/svg" viewBox="0 0 458.4 434.34">
  <defs>
    <style>
      .cls-1 {
        fill: #081f39;
      }

      .cls-2 {
        fill: #06537b;
      }

      .cls-3 {
        fill: #04385a;
      }

      .cls-4 {
        fill: #f9f9fa;
      }

      .cls-5 {
        fill: #0091be;
      }

      .cls-6 {
        fill: #0499d3;
      }

      .cls-7 {
        fill: #0383b8;
      }

      .cls-8 {
        fill: #0380b4;
      }

      .cls-9 {
        fill: #01abeb;
      }

      .cls-10 {
        fill: #0391c9;
      }

      .cls-11 {
        fill: #052643;
      }

      .cls-12 {
        fill: #0e2641;
      }

      .cls-13 {
        fill: #121213;
      }

      .cls-14 {
        fill: #07304f;
      }

      .cls-15 {
        fill: #028dc4;
      }

      .cls-16 {
        fill: #065c87;
      }

      .cls-17 {
        fill: #0671a1;
      }

      .cls-18 {
        fill: #0389bf;
      }

      .cls-19 {
        fill: #0a1932;
      }

      .cls-20 {
        fill: #03a3e0;
      }

      .cls-21 {
        fill: #074164;
      }

      .cls-22 {
        fill: #046592;
      }

      .cls-23 {
        fill: #083555;
      }

      .cls-24 {
        fill: #f7f7f7;
      }

      .cls-25 {
        fill: #026d9c;
      }

      .cls-26 {
        fill: #074a6f;
      }

      .cls-27 {
        fill: #0379ac;
      }

      .cls-28 {
        fill: #008fbd;
      }
    </style>
  </defs>
  <path class="cls-13" d="m69.25,205.39c0-5.07-.49-10.2.13-15.2.73-5.86,1.25-11.77,2.84-17.56,1.76-6.41,3.07-12.95,5.31-19.23,2.96-8.32,6.53-16.36,10.78-24.11,3.61-6.58,7.57-12.89,11.98-18.98,5.88-8.12,12.85-15.21,19.97-22.19,9.08-8.91,19.39-16.18,30.55-22.18,6.84-3.68,13.72-7.53,21.01-10.03,8.87-3.04,17.87-5.71,27.21-7.51,12.67-2.44,25.29-2.98,38.04-2.7,3.23.07,6.44.93,9.67,1.33,2.87.36,5.75.55,8.62.88,1.6.19,3.2.44,4.78.79,4.45.98,8.96,1.79,13.31,3.11,4.94,1.5,9.74,3.46,14.59,5.24,10.57,3.88,20.53,9.01,29.85,15.27,6.11,4.1,12.15,8.36,17.36,13.67,3.81,3.88,8.16,7.25,11.83,11.25,9.01,9.82,16.63,20.62,23.01,32.37,4.01,7.38,6.9,15.13,9.85,22.92,2.97,7.85,4.54,16.06,6.65,24.13.72,2.74.59,5.7.91,8.55.2,1.85.45,3.69.77,5.52,1.5,8.68,1.34,17.44.56,26.13-.75,8.39-2.16,16.7-4.14,24.95-3.08,12.84-7.49,25.15-13.36,36.93-5.15,10.33-11.68,19.82-19.11,28.65-3.98,4.72-8.13,9.36-12.67,13.53-7.92,7.27-16.09,14.29-25.61,19.51-6.45,3.53-12.72,7.43-19.36,10.54-7.62,3.56-15.55,6.52-23.79,8.43-7.15,1.66-14.33,3.19-21.55,4.53-3.21.6-6.52.81-9.79.84-9.26.09-18.53.26-27.78-.15-4.78-.21-9.53-1.45-14.24-2.48-4.78-1.04-9.51-2.34-14.23-3.64-3.33-.92-6.69-1.81-9.88-3.09-14.64-5.88-28.55-13.2-41.08-22.8-6.8-5.21-13.24-10.93-19.12-17.23-7.13-7.63-13.64-15.7-19.15-24.57-5-8.05-9.73-16.23-13.02-25.16-1.95-5.3-4.23-10.5-5.89-15.89-1.5-4.86-2.45-9.89-3.46-14.88-.9-4.47-1.63-8.98-2.27-13.5-.24-1.74,0-3.54,0-5.32v-10.66h-.08Zm196.13-42.41c-.19.24-.37.47-.56.71-.04.38-.11.76-.11,1.14,0,20.05-.01,40.1-.01,60.16,0,.76-.14,1.62.16,2.25.33.69,1.08,1.64,1.69,1.67,3.38.16,6.77.08,10.4.08v-4.28c0-7.49-.06-14.98.05-22.46.02-1.44.32-3.15,1.14-4.25,1.58-2.11,3.47-4.09,5.53-5.74,3.89-3.13,8.5-1.27,9.34,3.64.26,1.49.37,3.02.38,4.54.04,8.25.03,16.5.05,24.75,0,1.2.15,2.41.24,3.69h10.92c.21-.54.46-.88.46-1.22.02-11.42.3-22.85-.09-34.26-.28-8.01-6.32-12.94-12.73-13.3-4.86-.27-9.35.47-13.13,3.83-.6.54-1.31.95-2.36,1.7-.15-7.82.62-15.13-.09-22.63h-11.3l.02-.02Zm-6.12,18.32c-7.59-.41-15.18-.23-22.77-1.38-4.58-.7-9.31.59-13.5,3.1-7.41,4.43-8.21,16.9-4.91,22.14.46.74.85,1.52,1.23,2.2-3.65,6.75-3.89,12.95-.74,18.62-.9.97-1.89,1.93-2.76,3-4.01,4.94-4.39,12.44,2.89,16.49,2.28,1.27,4.9,2.25,7.48,2.61,4.12.58,8.34.79,12.51.69,5.42-.14,10.55-1.67,14.94-4.98,4.57-3.43,6.39-8.19,5.53-13.74-.79-5.1-4.61-7.63-9.11-9.28-1.06-.39-2.2-.73-3.32-.8-4.93-.3-9.88-.68-14.81-.65-2.3,0-3.82-.79-5.22-2.4-.81-.93-1.44-1.84-.59-3.01.76-1.06,1.64-1.93,3.18-1.46,3.89,1.18,7.8.6,11.7.04,9.34-1.35,15.06-9.6,13.03-18.79-.27-1.2-.53-2.41-.83-3.8,2.33-.16,4.41-.31,6.56-.46v-7.49l-.48-.67v.02Zm-78.74-18.43c-10.88,25.44-21.71,50.75-32.72,76.49,3.68,0,6.86-.05,10.03.02,1.63.04,2.47-.62,3.09-2.14,2.61-6.32,5.38-12.57,8.05-18.86,1.83-4.31,3.54-8.66,5.39-12.96,3.37-7.83,6.8-15.64,10.2-23.46,2.01-4.63,4.01-9.26,5.98-13.9.66-1.57,1.19-3.2,1.93-5.19h-11.95Zm-4.44,48.78c-1.9,4.33-3.78,8.63-5.86,13.38,2.4,1.47,4.42,3.46,6.77,4.01,5.91,1.38,12.01,1.44,17.92-.14,2.35-.63,4.69-1.85,6.64-3.32,6.01-4.53,7.87-11.22,8.73-18.26.7-5.74-.75-11.16-2.84-16.45-2.72-6.9-10.42-10.15-16.5-10.43-1.61-.07-2.34.58-2.79,2.31-.64,2.46-1.93,4.75-3.15,7.58,1.31.28,2.43.64,3.58.75,3.68.34,6.85,2.61,7.88,5.95,1.67,5.42,1.71,10.79-.41,16.18-2.63,6.71-10.87,8.61-15.9,3.48-1.43-1.46-2.6-3.19-4.08-5.04h.01Zm-29.79,10.91c-8.07-6.73-15.6-13.01-23.26-19.4,7.74-6.61,15.59-12.38,23.64-20.31-2.75-2.19-5.5-4.38-8.43-6.73-11,9.19-21.74,18.16-32.5,27.15,10.85,9.13,21.49,18.08,32.49,27.34,2.68-2.68,5.14-5.14,8.06-8.06h0Zm169.87-38.1c7.84,6.1,15.3,12.44,22.99,19.02-7.92,6.51-15.4,12.67-22.33,18.37,2.58,2.93,4.98,5.66,7.51,8.53,10.76-9.07,21.28-17.94,32.15-27.11-10.87-9.09-21.56-18.02-32.72-27.36-2.32,2.55-4.36,4.8-6.4,7.06-.32.36-.61.75-1.2,1.48h0Z"/>
  <path class="cls-1" d="m0,203.28c.24-5.95.39-11.91.77-17.85.27-4.25.72-8.51,1.35-12.73.73-4.89,1.68-9.76,2.65-14.61.83-4.13,1.58-8.3,2.82-12.32,2.49-8.09,5.26-16.09,7.98-24.1.59-1.73,1.42-3.39,2.21-5.25,4.83,1.99,9.56,3.94,14.29,5.89-2.21,6.27-4.41,12.1-6.31,18.03-1.54,4.81-2.77,9.73-4.06,14.62-1.2,4.56-2.43,9.12-3.39,13.73-.81,3.87-1.24,7.83-1.83,11.74-2.61.63-3.16,3.08-4.25,4.97-2.94,5.16-5.75,10.39-8.61,15.6-.78,1.43-1.82,2.43-3.61,2.27H0Z"/>
  <path class="cls-19" d="m384.32,124.85c2.7,5.22,5.09,10.56,7.23,16.06,2.28,5.86,4.35,11.79,6.22,17.77,1.46,4.66,2.7,9.45,3.39,14.28,1.76,12.16,3.82,24.33,3.18,36.7-.27,5.27-1.04,10.52-1.58,15.77-.26,2.48-.59,4.95-.76,7.44-.42,6.22-2.21,12.14-3.72,18.15-2.15,8.59-5.2,16.81-8.94,24.82-1.73,3.71-3.35,7.48-5.02,11.23-.99-.03-1.95-.02-2.19-1.35-.22-1.18-.58-2.34-.88-3.5.22-.71.34-1.46.67-2.11,4.59-8.85,7.42-18.33,10.47-27.77,2.68-8.31,4.41-16.81,5.6-25.37,1.57-11.24,2.46-22.63.94-33.97-1.31-9.81-2.31-19.65-4.89-29.3-3.31-12.4-7.91-24.24-13.37-35.81-.1-.22-.11-.49-.16-.74,1.27-.77,2.53-1.54,3.8-2.31h.01Z"/>
  <path class="cls-6" d="m445.79,131.83c.67,1.7,1.48,3.37,1.97,5.12,1.36,4.82,2.58,9.68,3.85,14.53-1.97,1.24-2.31,3.3-2.28,5.3.11,5.54.45,11.08.66,16.62.04,1-.14,2-.24,3-.14,1.25-.44,2.49-.44,3.74-.03,24.32-.08,48.64.05,72.96.02,3.21.96,6.42,1.48,9.63-.71,3.15-1.3,6.34-2.16,9.45-.68,2.47-1.7,4.84-2.57,7.25-2.47-1.17-2.13-3.48-2.14-5.54-.05-13.29-.02-26.59-.02-39.88v-8.36c0-1.14.13-2.37-1.49-2.59.15-5.9.42-11.8.43-17.7,0-5.52-.25-11.05-.4-16.57,2.6-.86,2.22-3.05,2.22-5.03.01-15.48-.03-30.97.06-46.45,0-1.84.67-3.67,1.03-5.5v.02Z"/>
  <path class="cls-10" d="m331.04,385.41c-7.33,3.67-14.63,7.38-21.99,10.98-2.01.98-4.18,1.64-6.28,2.45-.22-2.75,2.13-4.18,3.21-6.25,2.8-5.36,5.56-10.75,8.46-16.06,1.09-1.99,1.53-3.99,1.15-6.19,7.53-4.68,15.13-9.25,22.56-14.09,3.8-2.48,7.3-5.43,10.94-8.16.48,2.58.22,4.92-1.42,7.18-1.48,2.03-2.53,4.37-3.75,6.58-2.76,4.98-5.51,9.95-8.25,14.94-1.57,2.86-3.09,5.74-4.63,8.61h0Z"/>
  <path class="cls-6" d="m331.04,385.41c1.54-2.87,3.06-5.75,4.63-8.61,2.73-4.99,5.49-9.97,8.25-14.94,1.22-2.21,2.27-4.55,3.75-6.58,1.64-2.26,1.9-4.6,1.42-7.18,3.81-3.53,7.62-7.05,11.46-10.61,2.64,1.19,12.41,10.6,14.91,14.54-2.31,2.18-4.65,4.46-7.05,6.66-10.73,9.8-22.38,18.35-34.96,25.63-.76.44-1.6.73-2.41,1.09h0Z"/>
  <path class="cls-20" d="m450.84,262.75c-.52-3.21-1.46-6.42-1.48-9.63-.13-24.32-.08-48.64-.05-72.96,0-1.25.3-2.49.44-3.74.11-1,.28-2.01.24-3-.2-5.54-.55-11.08-.66-16.62-.04-1.99.3-4.05,2.28-5.3,1.01,4.55,2.1,9.09,3.02,13.67.64,3.16,1.1,6.36,1.55,9.55.5,3.51,1.02,7.03,1.31,10.57,1.09,13.17,1.31,26.35.06,39.51-.65,6.82-1.85,13.59-2.89,20.36-.73,4.75-1.57,9.48-2.47,14.2-.23,1.18-.89,2.28-1.35,3.41v-.02Z"/>
  <path class="cls-1" d="m56.2,319.08c-2.07-3.23-4.32-6.37-6.18-9.72-3.54-6.37-6.87-12.86-10.24-19.32-.46-.87-.96-1.88-.92-2.8.04-.82.61-2.05,1.28-2.34,4.46-1.97,8.99-3.8,13.56-5.54,1.35-.51,2.86-.59,3.94-.79,3.55,6.79,6.87,13.11,10.15,19.45.57,1.11,1,2.29,1.5,3.44-1.11,1.47-2.38,2.85-3.3,4.43-1.85,3.16-3.61,6.4-5.23,9.68-.98,1.98-2.3,3.29-4.55,3.53v-.02Z"/>
  <path class="cls-11" d="m0,203.28c1.78.16,2.82-.84,3.61-2.27,2.86-5.21,5.67-10.44,8.61-15.6,1.08-1.9,1.63-4.34,4.25-4.97-.21,3.76-.56,7.52-.6,11.28-.11,11.73-.1,23.45-.14,35.18-.62.55-1.44.98-1.83,1.66-2.57,4.46-5.08,8.95-7.52,13.48-.77,1.43-1.53,2.62-3.39,2.38-.79-4.62-1.67-9.24-2.34-13.88-.25-1.72.05-3.51,0-5.27-.2-7.33-.43-14.66-.65-21.98h0Z"/>
  <path class="cls-18" d="m315.6,370.35c.37,2.2-.07,4.2-1.15,6.19-2.9,5.31-5.66,10.69-8.46,16.06-1.09,2.08-3.44,3.51-3.21,6.25-7.66,2.42-15.32,4.87-22.99,7.25-1.19.37-2.47.41-3.71.6.36-1.04.58-2.15,1.1-3.1,3.05-5.65,6.24-11.24,9.23-16.92.67-1.28.76-2.86,1.12-4.3,3.37-1.33,6.77-2.56,10.09-4,6.03-2.61,12.01-5.34,18.01-8.03h-.03Z"/>
  <path class="cls-11" d="m56.2,319.08c2.24-.24,3.56-1.55,4.55-3.53,1.63-3.29,3.38-6.52,5.23-9.68.92-1.58,2.19-2.96,3.3-4.43,1.49,2.13,2.93,4.29,4.47,6.39,3.67,5.01,7.39,9.97,11.06,14.98.51.69.85,1.5,1.27,2.25-1.63,2.49-3.29,4.97-4.88,7.49-1.53,2.43-2.87,4.98-4.53,7.32-.65.92-1.93,1.39-2.92,2.07-2.68-3.11-5.53-6.11-8.01-9.37-3.33-4.38-6.37-8.97-9.54-13.48h0Z"/>
  <path class="cls-23" d="m73.75,341.94c.99-.68,2.27-1.15,2.92-2.07,1.66-2.34,3-4.89,4.53-7.32,1.59-2.52,3.25-5,4.88-7.49,2.21,2.21,4.41,4.43,6.63,6.63,4.26,4.21,8.54,8.4,12.8,12.6.44.43.82.93,1.23,1.4-1.99.29-3.63,1.17-4.6,2.97-2.16,3.98-4.3,7.98-6.37,12.02-.38.75-.39,1.69-.57,2.55-5.69-4.28-10.44-9.56-15.45-14.55-2.13-2.11-4-4.48-5.99-6.73h-.01Z"/>
  <path class="cls-8" d="m287.5,382.38c-.36,1.44-.44,3.03-1.12,4.3-2.99,5.68-6.18,11.27-9.23,16.92-.51.95-.74,2.06-1.1,3.1-8.73,2.54-17.66,3.86-26.71,4.4.53-1.27.96-2.59,1.61-3.79,2.62-4.84,5.35-9.62,7.95-14.48.57-1.07.76-2.35,1.13-3.53,7.66-1.81,15.61-2.42,22.98-5.47,1.45-.6,2.99-.98,4.49-1.46h0Z"/>
  <path class="cls-14" d="m2.97,244.41c1.86.24,2.62-.95,3.39-2.38,2.44-4.53,4.96-9.02,7.52-13.48.39-.68,1.21-1.11,1.83-1.66.54,2.39,1.43,4.76,1.55,7.16.33,6.67,2.13,13.05,3.47,19.52.74,3.58,1.77,7.1,2.67,10.65-2.11-.21-3.11,1.1-4.02,2.73-1.57,2.83-3.35,5.54-4.89,8.38-.77,1.42-1.83,1.95-3.34,1.86-1.75-6.25-3.5-12.51-5.23-18.76-.34-1.21-.63-2.44-.88-3.68-.71-3.44-1.39-6.9-2.08-10.34h.01Z"/>
  <path class="cls-21" d="m425.46,142.37c1.87,7.17,3.79,14.33,5.58,21.52.41,1.66.39,3.42.57,5.13-.96.72-2.1,1.29-2.84,2.19-3.74,4.52-7.34,9.15-11.09,13.65-.66.79-1.85,1.14-2.79,1.69-.22-.27-.62-.53-.63-.8-.31-9.27-2.57-18.23-4.38-27.26.64-.39,1.43-.66,1.88-1.2,3.54-4.24,7.1-8.47,10.47-12.85.91-1.18,1.58-2.25,3.23-2.07h0Z"/>
  <path class="cls-3" d="m414.89,186.56c.94-.55,2.13-.9,2.79-1.69,3.76-4.5,7.35-9.14,11.09-13.65.74-.9,1.88-1.47,2.84-2.19,2.79,11.88,3.7,23.95,3.94,36.68-6.58,0-12.84.47-19.12-.2-.16-.21-.33-.43-.49-.64-.35-6.1-.7-12.21-1.05-18.31h0Z"/>
  <path class="cls-27" d="m260.03,389.31c-.37,1.18-.55,2.46-1.13,3.53-2.6,4.85-5.33,9.64-7.95,14.48-.65,1.2-1.08,2.52-1.61,3.79-8.88,1.28-17.79,1.15-26.71.75,1.74-2.9,3.52-5.78,5.19-8.71,1.82-3.17,2.86-6.79,5.68-9.39.46-.42.4-1.4.58-2.12,6.12-.33,12.25-.56,18.37-1.02,2.54-.19,5.05-.85,7.58-1.3h0Z"/>
  <path class="cls-2" d="m152.87,397.62c-7.01-1.98-13.31-5.49-19.62-8.99.13-.74.09-1.56.41-2.19,2.05-4.01,4.06-8.05,6.33-11.94.84-1.44,2.32-2.51,3.52-3.75,3.31,1.53,6.6,3.11,9.93,4.58,3.71,1.64,7.46,3.2,11.19,4.79-.3.82-.49,1.69-.91,2.44-2.37,4.23-4.67,8.51-7.27,12.6-.71,1.12-2.36,1.65-3.57,2.45h-.01Z"/>
  <path class="cls-16" d="m152.87,397.62c1.22-.8,2.86-1.33,3.57-2.45,2.6-4.09,4.9-8.37,7.27-12.6.42-.75.61-1.62.91-2.44,5.89,1.77,11.88,3.28,17.61,5.47,1.78.68,3.61.66,5.28,1.38-.1.61-.02,1.33-.32,1.83-2.86,4.85-5.8,9.66-8.67,14.51-.44.74-.63,1.63-.94,2.45-4.98-.9-9.75-2.5-14.5-4.16-2.68-.94-5.42-1.67-8.1-2.6-.78-.27-1.42-.91-2.13-1.38h.02Z"/>
  <path class="cls-21" d="m95.19,363.22c.18-.85.19-1.8.57-2.55,2.07-4.03,4.21-8.03,6.37-12.02.98-1.8,2.61-2.68,4.6-2.97,4.73,3.68,9.47,7.37,14.2,11.05.83.64,1.66,1.28,2.49,1.91-.05.5.05,1.09-.18,1.48-3.3,5.57-6.64,11.12-9.97,16.67-4.24-3.04-8.52-6.03-12.72-9.13-1.87-1.38-3.59-2.97-5.37-4.46v.02Z"/>
  <path class="cls-25" d="m234.08,391.63c-.18.72-.12,1.7-.58,2.12-2.81,2.6-3.86,6.22-5.68,9.39-1.68,2.93-3.46,5.81-5.19,8.71-7.44.21-14.82-.3-22.13-1.67.19-1.22.1-2.58.63-3.62,1.38-2.67,3.14-5.14,4.57-7.78,1.43-2.63,2.64-5.38,3.95-8.08,8.14.31,16.28.62,24.42.92h.01Z"/>
  <path class="cls-26" d="m425.46,142.37c-1.65-.18-2.32.89-3.23,2.07-3.36,4.38-6.92,8.61-10.47,12.85-.46.54-1.25.81-1.88,1.2-.52-1.65-.98-3.33-1.57-4.96-2.05-5.65-4.17-11.27-6.21-16.93-.2-.56-.08-1.24-.11-1.86,2.58-.57,3.86-2.69,5.3-4.56,2.52-3.28,4.94-6.65,7.47-9.93.33-.42,1.1-.5,1.67-.73,3.01,7.61,6.02,15.23,9.03,22.84h0Z"/>
  <path class="cls-26" d="m113.28,376.8c3.33-5.55,6.67-11.1,9.97-16.67.23-.39.13-.98.18-1.48,4.92,3.18,9.81,6.42,14.78,9.52,1.66,1.03,3.53,1.73,5.3,2.58-1.19,1.24-2.68,2.3-3.52,3.75-2.27,3.89-4.28,7.93-6.33,11.94-.32.64-.28,1.46-.41,2.19-7.21-3.02-13.6-7.41-19.98-11.83h.01Z"/>
  <path class="cls-22" d="m209.66,390.7c-1.31,2.7-2.53,5.44-3.95,8.08-1.43,2.64-3.19,5.11-4.57,7.78-.54,1.04-.44,2.4-.63,3.62-1.71-.18-3.44-.24-5.12-.56-4.58-.87-9.15-1.84-13.72-2.8-1.36-.29-2.7-.69-4.05-1.05.31-.82.5-1.71.94-2.45,2.87-4.85,5.81-9.65,8.67-14.51.29-.5.22-1.21.32-1.83,7.35,1.4,14.62,3.26,22.13,3.72h-.02Z"/>
  <path class="cls-17" d="m368.56,81.71c-5.16-5.13-10.31-10.27-15.47-15.4,1.06-1.96,1.96-4.03,3.2-5.86,2.45-3.6,5.1-7.08,7.66-10.61,5.73,4.91,11.53,9.74,16.19,15.74-.39.79-.67,1.67-1.19,2.36-3.43,4.61-6.92,9.18-10.39,13.76h0Z"/>
  <path class="cls-3" d="m11.16,277.2c1.51.09,2.57-.44,3.34-1.86,1.54-2.84,3.32-5.55,4.89-8.38.91-1.63,1.91-2.94,4.02-2.73,1.52,4.47,3,8.97,4.58,13.42,1.06,2.97,2.33,5.88,3.42,8.84.51,1.4.83,2.87,1.23,4.31-.18.45-.25,1.17-.57,1.3-2.47,1-3.25,3.29-4.3,5.39-.56,1.11-1.14,2.21-1.74,3.3-.91,1.66-2.2,2.66-4.22,2.32-.22-.26-.44-.53-.65-.79s-.42-.51-.63-.77c-1.1-2.75-2.15-5.52-3.3-8.25-2.22-5.29-4.74-10.48-6.07-16.1h0Z"/>
  <path class="cls-2" d="m416.44,119.53c-.57.24-1.34.31-1.67.73-2.53,3.28-4.95,6.64-7.47,9.93-1.44,1.87-2.72,3.99-5.3,4.56-3.11-6.49-6.22-12.98-9.33-19.47,1.59-1.91,3.22-3.78,4.75-5.73,2.47-3.14,4.86-6.35,7.32-9.5.19-.24.69-.23,1.05-.34,4.16,6.28,7.9,12.78,10.65,19.81h0Z"/>
  <path class="cls-27" d="m363.96,49.85c-2.57,3.53-5.21,7-7.66,10.61-1.25,1.83-2.15,3.9-3.2,5.86-5.85-4.56-11.71-9.12-17.56-13.68.43-1.14.64-2.43,1.32-3.39,1.57-2.25,3.5-4.25,5.03-6.52,1.45-2.15,2.57-4.51,3.83-6.78,4.65,3.4,9.32,6.76,13.94,10.2,1.52,1.13,2.88,2.47,4.31,3.72v-.02Z"/>
  <path class="cls-22" d="m95.28,372.12c7.85,5.46,15.71,10.93,23.56,16.39-2.81,4.3-5.61,8.6-8.42,12.9-7.93-4.5-15.47-9.54-22.41-15.47.88-1.37,1.88-2.67,2.62-4.11,1.65-3.19,3.94-6.07,4.65-9.71h0Z"/>
  <path class="cls-22" d="m368.56,81.71c3.47-4.58,6.95-9.15,10.39-13.76.52-.7.8-1.57,1.19-2.36,5.58,5.57,10.79,11.45,15.1,18.08-1.31.91-2.87,1.6-3.88,2.76-2.47,2.83-4.69,5.88-7.01,8.84-.75.96-1.47,1.93-2.21,2.89-4.53-5.48-9.05-10.97-13.58-16.45h0Z"/>
  <path class="cls-16" d="m95.28,372.12c-.7,3.64-3,6.52-4.65,9.71-.74,1.44-1.74,2.74-2.62,4.11-7.62-5.66-14.85-11.76-21.22-18.84,1.01-.67,2.31-1.14,2.97-2.06,1.32-1.83,2.18-4,3.46-5.87.97-1.4,2.3-2.55,3.48-3.82,5.78,5.35,11.55,10.71,17.34,16.05.34.31.82.48,1.23.71h0Z"/>
  <path class="cls-21" d="m21.81,303.11c2.02.33,3.31-.66,4.22-2.32.6-1.09,1.18-2.19,1.74-3.3,1.05-2.09,1.83-4.38,4.3-5.39.31-.13.38-.85.57-1.3.76,1.24,1.6,2.44,2.27,3.72,3.22,6.13,6.4,12.28,9.57,18.43.22.43.25.96.37,1.44-3,3.49-5.38,7.36-7.43,11.47-.37.74-1.57,1.06-2.39,1.57-5.25-7.65-9.68-15.75-13.23-24.32h.01Z"/>
  <path class="cls-2" d="m76.71,355.35c-1.17,1.26-2.51,2.41-3.48,3.82-1.29,1.87-2.14,4.04-3.46,5.87-.67.92-1.96,1.39-2.97,2.06-4.28-4.61-8.62-9.16-12.82-13.84-1.68-1.87-3.06-4-4.57-6.02,1.91-.19,2.5-1.55,3.23-3.12,1.57-3.35,3.4-6.62,6.94-8.41,4.21,5.05,8.38,10.13,12.64,15.12,1.37,1.61,2.99,3.01,4.49,4.51h0Z"/>
  <path class="cls-20" d="m255.45,2.34c3.19.25,6.41.31,9.56.81,3.72.58,7.37,1.54,11.05,2.33.27,2.14-.65,3.66-2.01,5.35-3.13,3.87-5.86,8.06-8.75,12.12-4.81-.57-9.63-1.06-14.42-1.73-2.07-.29-4.08-.92-6.12-1.4-.23-3.34,2.56-5.07,4.04-7.49,2.09-3.41,5.66-5.85,6.65-9.99Z"/>
  <path class="cls-9" d="m255.45,2.34c-.99,4.15-4.56,6.58-6.65,9.99-1.48,2.41-4.27,4.15-4.04,7.49-5.17-.19-10.34-.38-15.72-.57V.04c9.04-.19,17.78.25,26.41,2.3Z"/>
  <path class="cls-7" d="m163.87,409.08c4.13,1.12,8.25,2.23,12.38,3.37,3.23.89,6.44,1.85,9.67,2.72,1.03.28,2.1.4,3.15.59-.38.77-.73,1.55-1.15,2.29-2.15,3.8-4.33,7.59-6.49,11.38-5.38-1.26-10.78-2.45-16.13-3.82-3.07-.79-6.06-1.9-9.09-2.86.28-.68.5-1.4.86-2.04,2.25-3.89,4.54-7.76,6.81-11.64h0Z"/>
  <path class="cls-7" d="m345.71,35.93c-1.26,2.27-2.39,4.64-3.83,6.78-1.53,2.27-3.46,4.28-5.03,6.52-.68.97-.89,2.25-1.32,3.39-6.18-3.81-12.36-7.61-18.54-11.42.56-.48,1.24-.87,1.67-1.45,3.49-4.68,6.94-9.39,10.4-14.09,5.55,3.42,11.1,6.84,16.65,10.26h0Z"/>
  <path class="cls-17" d="m110.42,401.41c2.81-4.3,5.61-8.6,8.42-12.9,2.63,1.45,5.24,2.93,7.88,4.36,3.9,2.1,7.81,4.17,11.74,6.22.84.44,1.76.73,2.65,1.09-2.21,3.72-4.37,7.48-6.69,11.13-.46.73-1.54,1.07-2.34,1.59-7.66-3.01-14.77-7.05-21.66-11.49Z"/>
  <path class="cls-16" d="m382.14,98.17c.74-.97,1.46-1.94,2.21-2.89,2.32-2.97,4.54-6.01,7.01-8.84,1.01-1.16,2.57-1.85,3.88-2.76,3.12,4.46,6.26,8.9,9.33,13.38.54.79.82,1.77,1.21,2.66-.36.11-.86.1-1.05.34-2.46,3.15-4.85,6.35-7.32,9.5-1.53,1.95-3.16,3.82-4.75,5.73-3.51-5.7-7.01-11.4-10.52-17.11h0Z"/>
  <path class="cls-26" d="m59.57,335.72c-3.54,1.79-5.37,5.05-6.94,8.41-.73,1.57-1.33,2.92-3.23,3.12-1.24-1.4-2.64-2.68-3.7-4.2-3.61-5.16-7.11-10.4-10.65-15.61.82-.51,2.02-.84,2.39-1.57,2.05-4.11,4.43-7.98,7.43-11.47,1.07,1.5,2.17,2.99,3.22,4.51,3.84,5.6,7.67,11.21,11.5,16.82h-.02Z"/>
  <path class="cls-6" d="m265.3,22.95c2.89-4.06,5.62-8.25,8.75-12.12,1.36-1.69,2.28-3.21,2.01-5.35,6.69,1.75,13.66,2.56,19.89,5.85-2.45,3.32-4.93,6.62-7.32,9.98-1.44,2.02-3.4,3.81-3.4,6.59-6.64-1.65-13.28-3.3-19.92-4.95h-.01Z"/>
  <path class="cls-27" d="m132.08,412.9c.79-.52,1.87-.86,2.34-1.59,2.32-3.66,4.47-7.41,6.69-11.13,7.61,2.91,14.77,6.96,22.76,8.91-2.27,3.88-4.56,7.75-6.81,11.64-.37.63-.58,1.36-.86,2.04-3.12-1.05-6.29-1.97-9.36-3.18-5.03-1.97-10.15-3.76-14.76-6.68h0Z"/>
  <path class="cls-15" d="m442.46,223.09c1.62.22,1.49,1.44,1.49,2.59v8.36c0,13.29-.02,26.59.02,39.88,0,2.06-.34,4.37,2.14,5.54-2.18,5.61-4.37,11.21-6.55,16.82-2.07-.27-1.7-1.87-1.7-3.2-.02-8.1.04-16.2-.05-24.3-.02-1.86-.41-3.75-.85-5.57-.13-.53-1.02-.89-1.56-1.32,3.12-11.51,5.05-23.25,6.57-35.06l.25-.25-.16-.32.39-3.16h0Z"/>
  <path class="cls-15" d="m445.79,131.83c-.36,1.83-1.02,3.67-1.03,5.5-.08,15.48-.04,30.97-.06,46.45,0,1.98.38,4.17-2.22,5.03-1.86-11.4-3.71-22.8-5.57-34.19,1.82-1.3,1.69-3.23,1.69-5.13,0-9.72-.05-19.43.04-29.15.02-1.7.63-3.4.97-5.1,2.05,5.53,4.11,11.06,6.16,16.58h.02Z"/>
  <path class="cls-15" d="m181.43,429.44c2.17-3.79,4.34-7.58,6.49-11.38.42-.74.77-1.53,1.15-2.29,5.55.72,11.1,1.45,16.66,2.16,2.58.33,5.17.63,7.75.95-.04.25,0,.54-.13.74-2.35,3.69-4.76,7.33-7.04,11.06-.42.68-.32,1.68-.46,2.53-8.36.19-16.4-1.72-24.42-3.76h0Z"/>
  <path class="cls-15" d="m329.06,25.67c-3.46,4.7-6.91,9.41-10.4,14.09-.43.58-1.11.97-1.67,1.45-5.25-2.37-10.49-4.75-15.74-7.12,2.09-2.93,4.21-5.84,6.25-8.81,1.74-2.53,4.54-4.48,4.48-8.02,5.07,2.39,10.14,4.77,15.2,7.18.67.32,1.26.82,1.88,1.23Z"/>
  <path class="cls-10" d="m311.98,17.26c.06,3.53-2.74,5.49-4.48,8.02-2.04,2.96-4.16,5.87-6.25,8.81-4.69-1.73-9.38-3.46-14.06-5.21-.68-.26-1.31-.65-1.96-.98,0-2.78,1.96-4.56,3.4-6.59,2.4-3.36,4.88-6.66,7.32-9.98,5.34,1.98,10.69,3.95,16.03,5.93h0Z"/>
  <path class="cls-8" d="m439.63,115.25c-.34,1.7-.96,3.4-.97,5.1-.09,9.72-.05,19.43-.04,29.15,0,1.9.13,3.83-1.69,5.13-1.5-4.92-2.97-9.85-4.53-14.76-.95-2.99-2.04-5.92-3.07-8.88,1.61-.2,2.49-.85,2.23-2.72-.32-2.29-.59-4.63-.53-6.94.14-5.87.44-11.73.8-17.59.04-.61.96-1.17,1.48-1.76,1.74,3.54,3.5,7.07,5.22,10.62.42.86.74,1.77,1.11,2.65h0Z"/>
  <path class="cls-8" d="m435.4,261.87c.54.44,1.43.79,1.56,1.32.44,1.82.83,3.71.85,5.57.09,8.1.03,16.2.05,24.3,0,1.34-.37,2.94,1.7,3.2-2.59,5.32-5.18,10.63-7.77,15.95-.51-.46-1.27-.84-1.46-1.41-.26-.8-.11-1.74-.12-2.63v-21.2c0-1.66.19-3.42-2.16-3.73,2.45-7.13,4.9-14.25,7.34-21.38h.01Z"/>
  <path class="cls-10" d="m205.84,433.2c.14-.85.05-1.85.46-2.53,2.28-3.73,4.69-7.37,7.04-11.06.12-.19.09-.49.13-.74l15.36.39.24.24v14.59c-7.78.46-15.52.33-23.23-.89Z"/>
  <path class="cls-17" d="m433.3,101.98c-.51.58-1.44,1.14-1.48,1.76-.37,5.86-.66,11.72-.8,17.59-.06,2.31.21,4.64.53,6.94.26,1.87-.62,2.52-2.23,2.72-2.45-5.86-4.89-11.71-7.34-17.57,2.25-.68,2.11-2.56,2.12-4.31.02-5.67.01-11.34,0-17.02,0-1.52-.16-3.1,1.65-3.84,2.51,4.58,5.03,9.16,7.54,13.75v-.02Z"/>
  <path class="cls-23" d="m327.23,60.73c.76.43,1.57.79,2.27,1.31,7.2,5.42,14.59,10.6,20.63,17.43,3.22,3.65,6.8,6.98,10.21,10.46-.62,1.74-1.24,3.48-1.86,5.23-2.26-2.33-4.5-4.68-6.78-6.99-7.34-7.42-15.18-14.26-23.59-20.44-.6-.44-1.14-.95-1.72-1.43.28-1.86.56-3.72.85-5.57h-.01Z"/>
  <path class="cls-21" d="m327.23,60.73c-.28,1.86-.56,3.72-.85,5.57-3.39-2.05-6.71-4.23-10.19-6.12-5.42-2.93-10.93-5.73-16.46-8.45-2.99-1.47-6.12-2.64-9.18-3.95-.27-.21-.53-.41-.8-.62-.75-.3-1.49-.59-2.24-.89v-5.08c4.68,1.74,9.43,3.3,14.01,5.27,9.03,3.9,17.71,8.48,25.71,14.26h0Z"/>
  <path class="cls-22" d="m425.75,88.24c-1.81.74-1.65,2.32-1.65,3.84,0,5.67.02,11.35,0,17.02,0,1.76.12,3.63-2.12,4.31-2.46-4.76-4.92-9.52-7.39-14.28,1.74-.66,1.91-2.08,1.9-3.68-.04-4.64-.09-9.27.02-13.91.05-2.1.49-4.19.76-6.28,1.79,2.52,3.64,5,5.35,7.58,1.15,1.73,2.09,3.59,3.13,5.4Z"/>
  <path class="cls-9" d="m92.13,105.05c-4.08,6.54-8.31,12.98-12.17,19.64-2.78,4.79-5.06,9.86-7.7,15.08-1.44-.5-2.95-1.03-4.86-1.69,5.85-13.01,12.43-25.28,21.23-36.28.4.55,1.05,1.06,1.15,1.66.25,1.47,1.21,1.61,2.36,1.6h0Z"/>
  <path class="cls-17" d="m428.06,283.26c2.35.31,2.16,2.07,2.16,3.73v21.2c0,.88-.15,1.82.12,2.63.19.57.95.94,1.46,1.41-2.23,3.94-4.45,7.88-6.68,11.82-1.62-3.36-2.3-6.93-1.52-10.57.99-4.64.6-9.19-.37-13.72-.11-.52-1.01-.88-1.54-1.31,2.13-5.06,4.26-10.12,6.38-15.18h-.01Z"/>
  <path class="cls-12" d="m381.26,282.21c.3,1.17.66,2.32.88,3.5.24,1.33,1.2,1.32,2.19,1.35-4.63,9.41-10.23,18.18-17.05,26.18-2.18,2.55-4.19,5.24-6.28,7.86-.84-1.7-1.67-3.39-2.51-5.09,8.1-10.19,15.85-20.61,21.54-32.41.26-.54.82-.93,1.23-1.39h0Z"/>
  <path class="cls-2" d="m417.28,75.26c-.26,2.09-.71,4.18-.76,6.28-.12,4.63-.06,9.27-.02,13.91.01,1.6-.16,3.02-1.9,3.68-2.69-4.37-5.38-8.74-8.07-13.12.5-.33,1.32-.57,1.43-1,.42-1.7.74-3.44.87-5.18.35-5.03-.67-10.12.77-15.09,2.56,3.51,5.13,7.01,7.69,10.52h0Z"/>
  <path class="cls-23" d="m391.95,344.16c3.07-3.84,6.14-7.69,9.21-11.53,1.18,2.01,2.01,4.15,1.55,6.49-.73,3.75.25,7.47.05,11.21-.07,1.24-.2,2.6,1.33,3.22-3.22,3.56-6.44,7.12-9.66,10.67-.28-3.86-.62-7.71-.83-11.58-.12-2.13-.05-4.27-.02-6.4.01-1.17-.38-1.95-1.63-2.09h0Z"/>
  <path class="cls-2" d="m287.51,41.2v5.08c-1.77-.47-3.54-.93-5.3-1.42-7.13-1.95-14.22-4.1-21.41-5.8-4.24-1-8.64-1.31-12.97-1.93-.26-1.69-.51-3.39-.77-5.08.96.21,1.92.56,2.89.62,8.19.51,16.22,2,24.15,4.06,3.48.9,6.92,1.96,10.34,3.03,1.07.33,2.05.95,3.07,1.44h0Z"/>
  <path class="cls-14" d="m358.48,316.02c.84,1.7,1.67,3.39,2.51,5.09-5.12,6.25-10.84,11.89-17.13,16.96-3.21,2.58-6.42,5.16-9.63,7.74-2.63-.57-2.44-2.64-2.46-4.6,5.35-4.73,10.81-9.35,16.03-14.23,3.72-3.48,7.13-7.29,10.68-10.96h0Z"/>
  <path class="cls-21" d="m409.59,64.74c-1.44,4.97-.42,10.07-.77,15.09-.12,1.74-.45,3.48-.87,5.18-.1.42-.93.67-1.43,1-2.54-3.3-5.08-6.6-7.62-9.91,1.86-.26,1.5-1.7,1.55-2.91.26-6.15.51-12.29.77-18.44,2.79,3.33,5.58,6.66,8.37,9.99Z"/>
  <path class="cls-12" d="m358.47,95.16c.62-1.74,1.24-3.48,1.86-5.23,2.24,2.83,4.5,5.65,6.72,8.5,2.64,3.38,5.49,6.63,7.79,10.23,3.37,5.26,6.34,10.78,9.48,16.18-1.27.77-2.53,1.54-3.8,2.31-2.43-4.04-4.65-8.21-7.33-12.08-3.98-5.75-8.27-11.29-12.44-16.91-.22-.24-.45-.49-.67-.73-.54-.76-1.08-1.52-1.63-2.27h.02Z"/>
  <path class="cls-26" d="m404.09,353.55c-1.54-.62-1.4-1.98-1.33-3.22.2-3.74-.78-7.46-.05-11.21.46-2.34-.38-4.48-1.55-6.49,2.6-3.75,5.2-7.5,7.79-11.25,1.89.33,1.39,1.83,1.4,3,.04,5.17-.04,10.34.05,15.51.03,1.47.5,2.93.77,4.39-2.36,3.09-4.72,6.18-7.08,9.27h0Z"/>
  <path class="cls-21" d="m331.78,341.2c.01,1.96-.17,4.03,2.46,4.6-7.97,6.5-16.8,11.59-26.02,16.06-2.06,1-4.13,1.96-6.19,2.95-1.05-1.4-1.87-2.88-1.59-4.72,1.39-.77,2.76-1.59,4.18-2.3,9.08-4.54,17.79-9.68,25.86-15.87.39-.3.87-.48,1.31-.71h0Z"/>
  <path class="cls-22" d="m421.68,298.44c.53.43,1.43.79,1.54,1.31.98,4.54,1.36,9.09.37,13.72-.78,3.64-.1,7.21,1.52,10.57-2.01,3.2-4.01,6.41-6.02,9.61-1.82-.63-1.87-2.12-1.86-3.7.02-5.66.03-11.32,0-16.99,0-1.17.48-2.65-1.36-3.04,1.94-3.83,3.88-7.66,5.82-11.5v.02Z"/>
  <path class="cls-2" d="m415.86,309.93c1.84.39,1.36,1.87,1.36,3.04.04,5.66.03,11.32,0,16.99,0,1.58.04,3.07,1.86,3.7-1.87,2.76-3.71,5.55-5.64,8.26-.63.88-1.51,1.58-2.28,2.37-.27-1.46-.74-2.92-.77-4.39-.09-5.17-.01-10.34-.05-15.51,0-1.16.49-2.67-1.4-3,2.3-3.82,4.6-7.63,6.91-11.45h.01Z"/>
  <path class="cls-23" d="m401.22,54.75c-.26,6.15-.51,12.29-.77,18.44-.05,1.22.31,2.65-1.55,2.91-2.57-3.23-5.13-6.46-7.7-9.7,1.26-1.19,1.67-2.59,1.67-4.36,0-5.26-.54-10.56.75-15.76,2.53,2.82,5.06,5.64,7.6,8.46h0Z"/>
  <path class="cls-12" d="m391.95,344.16c1.25.14,1.65.92,1.63,2.09-.03,2.13-.09,4.28.02,6.4.21,3.86.54,7.72.83,11.58-.16.19-.31.39-.48.57-2.96,2.98-2.98,3-5.76.03-2.59-2.76-5.12-5.58-7.86-8.56,3.55-3.7,7.59-7.9,11.63-12.1h-.01Z"/>
  <path class="cls-20" d="m92.13,105.05c-1.15,0-2.11-.12-2.36-1.6-.1-.6-.75-1.11-1.15-1.66,6.61-9.61,14.67-17.91,23.35-25.64-.19,2.02.98,3.14,2.63,3.94-4.21,4.36-8.53,8.63-12.6,13.12-3.45,3.81-6.6,7.87-9.88,11.83h0Z"/>
  <path class="cls-26" d="m300.44,360.08c-.28,1.85.54,3.32,1.59,4.72-6.31,2.53-12.55,5.25-18.95,7.53-4.25,1.51-8.73,2.4-13.1,3.57,0-1.65,0-3.3-.01-4.95,5.79-1.85,11.62-3.56,17.34-5.58,4.45-1.57,8.76-3.51,13.13-5.29h0Z"/>
  <path class="cls-11" d="m393.62,46.29c-1.29,5.2-.75,10.5-.75,15.76,0,1.77-.41,3.17-1.67,4.36-2.77-2.92-5.54-5.85-8.33-8.75-.94-.97-1.97-1.86-2.93-2.75,3.48-3.78,6.97-7.56,10.79-11.71,1.26,1.35,2.07,2.22,2.88,3.09h.01Z"/>
  <path class="cls-22" d="m247.06,32.05c.26,1.69.51,3.39.77,5.08-3.37-.27-6.74-.49-10.1-.83-5.81-.59-11.59-.83-17.4.11-1.98.32-4.05.07-6.08.08-.25-1.52-.51-3.05-.76-4.57.99-.19,1.98-.52,2.97-.55,10.21-.3,20.44-.88,30.61.67h0Z"/>
  <path class="cls-6" d="m114.61,80.1c-1.65-.8-2.82-1.92-2.63-3.94,7.42-7.08,15.51-13.27,24.38-18.45.52,1.55,1.03,3.09,1.55,4.64-6.4,4.67-12.82,9.31-19.18,14.03-1.48,1.1-2.75,2.47-4.12,3.72Z"/>
  <path class="cls-8" d="m186.77,375.41c-2.55-.6-5.13-1.08-7.64-1.83-4.23-1.28-8.42-2.67-12.59-4.13-1.96-.69-3.83-1.63-6.18-2.65.9-1.74,1.61-3.11,2.53-4.87,7.93,4.12,16.4,6.16,24.71,8.67-.28,1.6-.56,3.21-.84,4.81h.01Z"/>
  <path class="cls-17" d="m213.48,31.92l.76,4.57c-7.54,1.24-15.09,2.46-22.63,3.74-1.86.31-3.68.81-5.52,1.22-.28-1.6-.56-3.19-.85-4.79,4.07-.95,8.11-2.11,12.23-2.78,5.3-.86,10.67-1.33,16-1.97h.01Z"/>
  <path class="cls-16" d="m269.96,370.95c0,1.65,0,3.3.01,4.95-9.26,2.46-18.6,4.34-28.26,4.01v-4.49c9.18-.64,18.19-2.33,27.12-4.47.35-.08.75,0,1.12,0h.01Z"/>
  <path class="cls-17" d="m186.77,375.41c.28-1.6.56-3.21.84-4.81,5.58,2.15,11.69,1.9,17.33,3.86,1.35.47,3.01.01,4.51.13,1.62.13,3.23.44,4.84.67-.08,1.54.14,2.93,1.6,3.87.56.36.94.98,1.41,1.48-6.1-.73-12.24-1.28-18.3-2.26-4.13-.66-8.41-.91-12.23-2.95h0Z"/>
  <path class="cls-8" d="m185.25,36.68c.28,1.6.56,3.19.85,4.79-8.65,3.02-17.31,6.03-25.96,9.05-.28-1.6-.56-3.21-.85-4.81,8.33-3.93,16.95-7.03,25.96-9.02h0Z"/>
  <path class="cls-15" d="m159.29,45.7c.28,1.6.56,3.21.85,4.81-7.41,3.95-14.82,7.89-22.23,11.84-.52-1.55-1.03-3.09-1.55-4.64,7.11-5.02,14.72-9.09,22.93-12.01Z"/>
  <path class="cls-22" d="m217.3,380.62c-.46-.5-.85-1.12-1.41-1.48-1.47-.94-1.68-2.33-1.6-3.87,9.14.05,18.28.1,27.43.15v4.49c-8.1,1.46-16.28.6-24.42.71h0Z"/>
  <path class="cls-21" d="m20.53,301.55c.21.26.42.51.63.77-.21-.26-.42-.51-.63-.77Z"/>
  <path class="cls-20" d="m442.07,226.25l.16.32-.25.25c-.14-.22-.11-.41.09-.57Z"/>
  <path class="cls-2" d="m415.95,204.86c.16.21.33.43.49.64-.16-.21-.33-.43-.49-.64Z"/>
  <path class="cls-23" d="m360.1,97.43c.22.24.45.49.67.73-.22-.24-.45-.49-.67-.73Z"/>
  <path class="cls-2" d="m289.75,47.17c.27.21.53.41.8.62-.27-.21-.53-.41-.8-.62Z"/>
  <polygon class="cls-20" points="229.07 419.5 228.83 419.26 229.09 419.25 229.07 419.5"/>
  <path class="cls-28" d="m259.74,181.97v7.49c-2.15.15-4.23.3-6.56.46.3,1.39.57,2.59.83,3.8,2.03,9.19-3.7,17.44-13.03,18.79-3.9.56-7.81,1.14-11.7-.04-1.54-.47-2.42.4-3.18,1.46-.84,1.17-.22,2.07.59,3.01,1.4,1.6,2.91,2.41,5.22,2.4,4.94-.03,9.88.35,14.81.65,1.12.07,2.25.41,3.32.8,4.5,1.65,8.31,4.17,9.11,9.28.86,5.55-.95,10.31-5.53,13.74-4.4,3.3-9.52,4.84-14.94,4.98-4.17.11-8.38-.11-12.51-.69-2.57-.36-5.19-1.34-7.48-2.61-7.27-4.05-6.9-11.55-2.89-16.49.87-1.07,1.87-2.03,2.76-3-3.15-5.67-2.91-11.87.74-18.62-.38-.68-.77-1.47-1.23-2.2-3.3-5.24-2.5-17.72,4.91-22.14,4.19-2.51,8.91-3.8,13.5-3.1,7.59,1.15,15.18.97,22.77,1.38.16.22.32.45.48.67v-.02Zm-24.49,23.43c4.98,0,8.47-3.71,8.62-9.15.11-4.35-3.71-8.04-8.36-8.07-5.03-.03-8.93,3.93-8.83,8.94.1,4.76,3.75,8.28,8.58,8.28h-.01Zm.37,22.65l-.03.31c-1.4,0-2.8-.05-4.19,0-3.45.15-6.54,3.35-6.48,6.66.06,3.05,2.8,5.43,6.47,5.53,2.41.07,4.87.29,7.23-.04,2.08-.29,4.2-1,6.05-2,2.44-1.33,2.68-3.89,2.38-6.36-.26-2.18-2.21-2.7-3.92-3.05-2.47-.51-5-.71-7.51-1.05h0Z"/>
  <path class="cls-5" d="m265.38,162.98h11.3c.72,7.5-.06,14.81.09,22.63,1.05-.75,1.75-1.17,2.36-1.7,3.77-3.36,8.27-4.1,13.13-3.83,6.4.36,12.45,5.29,12.73,13.3.4,11.41.11,22.84.09,34.26,0,.34-.25.69-.46,1.22h-10.92c-.09-1.28-.23-2.49-.24-3.69-.03-8.25-.01-16.5-.05-24.75,0-1.51-.13-3.05-.38-4.54-.84-4.91-5.45-6.77-9.34-3.64-2.06,1.66-3.94,3.63-5.53,5.74-.82,1.1-1.12,2.81-1.14,4.25-.11,7.49-.05,14.97-.05,22.46v4.28c-3.64,0-7.02.08-10.4-.08-.61-.03-1.36-.98-1.69-1.67-.3-.63-.16-1.49-.16-2.25,0-20.05,0-40.1.01-60.16,0-.38.07-.76.11-1.14.19-.24.37-.47.56-.71l-.02.02Z"/>
  <path class="cls-4" d="m180.52,162.88h11.95c-.73,1.99-1.26,3.62-1.93,5.19-1.96,4.65-3.97,9.28-5.98,13.9-3.39,7.82-6.83,15.63-10.2,23.46-1.85,4.3-3.56,8.65-5.39,12.96-2.67,6.29-5.44,12.55-8.05,18.86-.63,1.52-1.46,2.18-3.09,2.14-3.17-.07-6.35-.02-10.03-.02,11.01-25.75,21.84-51.05,32.72-76.49h0Z"/>
  <path class="cls-4" d="m176.08,211.66c1.48,1.85,2.64,3.58,4.08,5.04,5.03,5.13,13.27,3.23,15.9-3.48,2.11-5.39,2.08-10.76.41-16.18-1.03-3.34-4.19-5.61-7.88-5.95-1.15-.11-2.27-.46-3.58-.75,1.22-2.83,2.51-5.12,3.15-7.58.45-1.73,1.18-2.39,2.79-2.31,6.08.28,13.78,3.53,16.5,10.43,2.09,5.29,3.54,10.72,2.84,16.45-.86,7.04-2.72,13.72-8.73,18.26-1.95,1.47-4.29,2.69-6.64,3.32-5.91,1.59-12.01,1.52-17.92.14-2.35-.55-4.37-2.54-6.77-4.01,2.08-4.75,3.97-9.05,5.86-13.38h-.01Z"/>
  <path class="cls-24" d="m146.29,222.57c-2.92,2.92-5.38,5.38-8.06,8.06-11-9.25-21.63-18.2-32.49-27.34,10.76-8.99,21.5-17.96,32.5-27.15,2.94,2.34,5.68,4.53,8.43,6.73-8.05,7.93-15.91,13.69-23.64,20.31,7.66,6.39,15.18,12.66,23.26,19.4h0Z"/>
  <path class="cls-24" d="m316.16,184.46c.59-.73.88-1.12,1.2-1.48,2.04-2.26,4.09-4.51,6.4-7.06,11.16,9.33,21.85,18.27,32.72,27.36-10.87,9.16-21.4,18.04-32.15,27.11-2.53-2.87-4.93-5.6-7.51-8.53,6.93-5.7,14.41-11.85,22.33-18.37-7.69-6.58-15.15-12.92-22.99-19.02h0Z"/>
  <path class="cls-25" d="m259.74,181.97c-.16-.22-.32-.45-.48-.67.16.22.32.45.48.67Z"/>
  <path class="cls-17" d="m265.38,162.98c-.19.24-.37.47-.56.71.19-.24.37-.47.56-.71Z"/>
  <path class="cls-13" d="m235.25,205.41c-4.83,0-8.48-3.52-8.58-8.28-.1-5.01,3.81-8.97,8.83-8.94,4.65.03,8.47,3.72,8.36,8.07-.14,5.44-3.63,9.15-8.62,9.15h.01Z"/>
  <path class="cls-13" d="m235.62,228.06c2.51.33,5.04.53,7.51,1.05,1.71.36,3.65.87,3.92,3.05.3,2.48.05,5.04-2.38,6.36-1.84,1-3.97,1.71-6.05,2-2.37.33-4.82.11-7.23.04-3.67-.1-6.42-2.49-6.47-5.53-.06-3.31,3.03-6.51,6.48-6.66,1.4-.06,2.8,0,4.19,0l.03-.31h0Z"/>
</svg>