<?xml version="1.0" encoding="UTF-8"?>
<svg id="Capa_1" data-name="Capa 1" xmlns="http://www.w3.org/2000/svg" viewBox="0 0 1924.41 1925.48">
  <defs>
    <style>
      .cls-1 {
        fill: #0091bf;
      }

      .cls-2 {
        fill: #121415;
      }

      .cls-3 {
        fill: #bfbfbf;
      }

      .cls-4 {
        fill: #025066;
      }

      .cls-5 {
        fill: #007091;
      }

      .cls-6 {
        fill: #3e3e3e;
      }

      .cls-7 {
        fill: #131313;
      }

      .cls-8 {
        fill: #062f37;
      }

      .cls-9 {
        fill: gray;
      }

      .cls-10 {
        fill: #0092c0;
      }

      .cls-11 {
        fill: #fdfdfd;
      }

      .cls-12 {
        fill: #006786;
      }

      .cls-13 {
        fill: #015872;
      }

      .cls-14 {
        fill: #034354;
      }

      .cls-15 {
        fill: #e3e3e3;
      }

      .cls-16 {
        fill: #fcfcfc;
      }
    </style>
  </defs>
  <path class="cls-7" d="m974.89,1925.48c-33.6-1.77-67.21-3.35-100.79-5.4-16.06-.98-32.16-2.17-48.06-4.47-17.28-2.5-34.41-6.2-51.53-9.72-19.96-4.11-40.07-7.79-59.71-13.14-23.69-6.45-47.19-13.8-70.35-21.97-21.86-7.71-43.06-17.27-64.73-25.53-27.78-10.58-53.78-24.8-79.74-38.96-31.77-17.32-62.54-36.35-92.12-57.34-26-18.45-51.45-37.67-75.33-58.63-24.7-21.68-47.72-45.32-70.93-68.64-29.61-29.74-55.74-62.55-80.2-96.53-17.4-24.17-33.24-49.55-48.44-75.17-13.44-22.64-25.3-46.24-37.38-69.65-19.98-38.7-35.62-79.2-49.09-120.56-9.49-29.14-17.95-58.58-23.87-88.69-3.37-17.14-6.96-34.25-9.93-51.47-2.43-14.1-4.24-28.32-6.07-42.52-7.44-57.46-7.9-115.13-4.84-172.89.81-15.29,1.3-30.63,2.8-45.85,1.21-12.27,3.77-24.4,5.63-36.61,2.16-14.15,3.96-28.37,6.38-42.47,1.81-10.55,4.05-21.04,6.65-31.42,9.51-37.88,19.43-75.67,33.37-112.22,7.94-20.81,15.67-41.77,25.08-61.92,13.36-28.61,27.47-56.93,42.58-84.64,14.62-26.8,30.65-52.85,48.8-77.48,14.59-19.8,28.94-39.8,44.08-59.17,9.13-11.69,19.35-22.56,29.48-33.43,16.31-17.49,32.64-34.98,49.55-51.88,10.28-10.28,21.5-19.63,32.56-29.09,12.51-10.71,25.28-21.13,38-31.6,20.02-16.48,41.03-31.64,62.94-45.48,22.46-14.18,44.89-28.49,68.05-41.47,29.22-16.39,59.13-31.55,90.48-43.63,23.15-8.92,46.02-18.69,69.56-26.45,31.81-10.49,63.85-20.42,97.03-26.07,9.66-1.64,18.97-5.3,28.61-7.18,10.27-2,20.73-2.98,31.11-4.44,13.62-1.91,27.21-4.14,40.87-5.7,14.44-1.64,28.93-2.93,43.42-3.88,48.65-3.19,97.29-2.88,145.85,1.66,13.61,1.27,27.09,3.98,40.66,5.76,11.66,1.53,23.4,2.37,35.03,4.07,11.22,1.63,22.4,3.63,33.47,6.06,17.96,3.94,35.97,7.84,53.69,12.71,21.41,5.89,42.72,12.24,63.74,19.38,21.92,7.45,43.82,15.2,65.04,24.43,25.62,11.15,50.67,23.67,75.67,36.18,31.09,15.55,60.85,33.52,89.37,53.34,24.45,16.99,48.14,35.11,71.59,53.46,12.96,10.14,24.97,21.55,36.98,32.85,17.93,16.86,36.12,33.52,53.04,51.36,28.14,29.66,53.85,61.38,77.99,94.47,20.03,27.46,38.52,55.85,55.29,85.3,15.12,26.55,28.79,53.87,41.5,81.78,16.34,35.87,29.3,72.89,42.17,109.98,6.13,17.65,10.38,35.98,14.87,54.16,4.95,20.02,9.68,40.13,13.58,60.37,2.89,15.01,4.41,30.29,6.34,45.48,2.37,18.63,5.08,37.24,6.69,55.94,4.44,51.27,3.81,102.56-.76,153.8-1.57,17.6-3.53,35.19-6.07,52.67-1.96,13.48-5.89,26.69-7.59,40.19-3.06,24.31-8.92,47.99-15.43,71.47-7.14,25.72-15.03,51.3-24.04,76.43-9.52,26.55-19.75,52.94-31.41,78.6-20.67,45.5-44.82,89.23-72.79,130.69-20.95,31.05-42.67,61.59-67.89,89.44-12.67,14-25.04,28.29-38.1,41.91-15.37,16.04-30.74,32.18-47.22,47.03-18.32,16.51-37.44,32.23-57.06,47.17-24.18,18.41-48.76,36.38-74.09,53.17-19.37,12.84-39.95,23.95-60.39,35.08-18.63,10.14-37.45,20.1-56.84,28.66-24.82,10.96-50.07,21.06-75.56,30.35-22.71,8.27-45.78,15.77-69.11,22.08-23.64,6.4-47.74,11.09-71.71,16.21-16.84,3.6-33.77,6.83-50.72,9.87-6.76,1.21-13.7,1.39-20.55,2.14-32.93,3.61-65.9,6.52-99.15,7.68Zm-232.05-1110.23c-1.33-3.38-3.77-2.76-6.33-1.76-5.1-.54-10.83-2.9-13.76,3.83-6.06,13.93-12.04,27.88-17.81,41.93-1.53,3.73-2.16,7.82-3.2,11.71,7.78.96,14.72,1.34,21.43,2.75,13.29,2.8,25.38,7.87,33.89,19.38,9.82,13.29,14.56,28.25,15.74,44.53.52,2.05,1.04,4.09,1.55,6.14.02,10.65.04,21.3.07,31.95-.54,2.04-1.08,4.08-1.62,6.12-.76,4.85-1.09,9.81-2.34,14.53-6.77,25.6-18.76,46.83-47.24,52.94-21.68,4.65-48.6.59-63.49-21.04-5.27-7.66-10.13-15.6-15.16-23.38-.66,1.03-2.11,2.8-3.01,4.82-4.72,10.64-9.36,21.31-13.9,32.02-4.79,11.29-9.58,22.58-13.99,34.02-.74,1.93-.39,5.54.94,6.79,3.77,3.56,8.11,6.65,12.6,9.29,15.31,9,31.47,15.53,49.44,17.17,27.52,2.51,54.43,2.98,81.32-6.77,24.89-9.03,45.37-22.85,60.38-44.25,14.72-20.99,23.36-44.62,26.42-70.17,3.95-1.29,5.09-3.19,1.34-6.15,3.01-28.46.7-56.51-7.8-83.81-5.55-17.83-13.77-34.69-26.85-48.24-18.69-19.37-42.18-30-68.62-34.33Zm-4.18-105.25c.6-.91,1.2-1.83,1.8-2.74l-2-1.17h-64.81c-5.28,12.29-10.33,23.93-15.29,35.6-9.67,22.71-19.17,45.48-28.97,68.14-9.95,23.01-20.33,45.83-30.21,68.86-11.75,27.39-23.06,54.97-34.75,82.39-13.82,32.41-27.87,64.71-41.79,97.08-11.67,27.13-23.32,54.27-34.93,81.43-3.83,8.95-7.5,17.97-11.48,27.5h67.09c3.49-8.06,6.83-15.78,10.18-23.5,8.53-19.68,17.09-39.34,25.58-59.04,7.69-17.83,15.26-35.72,22.98-53.54,7.1-16.38,14.49-32.64,21.45-49.08,7.85-18.55,15.22-37.31,23.06-55.87,15.93-37.7,31.88-75.38,48.12-112.95,11.97-27.7,24.5-55.15,36.58-82.8,2.88-6.59,4.94-13.53,7.38-20.31Zm508.05,111.7c2.5-38.48,1.05-76.95,1.15-115.28-19.75-1.88-62.03-1.15-69.31,1.18,0,130.14,0,260.44.02,390.74,0,1.64.31,3.29.53,4.93.04.28.32.55.53.79.22.24.5.44.78.68h67.64c0-4.18,0-7.76,0-11.34,0-53.66.01-107.32-.02-160.98,0-4.7-.09-9.25,3.45-13.11,10.35-11.27,20.27-22.95,30.91-33.94,6.86-7.08,15.86-10.95,25.51-12.96,17.24-3.59,34.54,5.6,38.02,21.06,2.24,9.93,3.8,20.24,3.87,30.39.36,56.66.17,113.32.2,169.98,0,3.53.31,7.06.48,10.84h67.59c.3-1.91.67-3.19.67-4.48-.04-66.66.36-133.32-.57-199.97-.18-13.23-3.89-26.98-8.68-39.45-8.66-22.56-24.96-37.53-49.01-44.37-34.12-9.69-65.19-4.67-93.32,16.72-7.37,5.6-13.46,12.87-20.14,19.37-.73-.28-1.46-.56-2.19-.85.55-8.65,1.09-17.3,1.64-25.95.08-1.34.16-2.68.25-4.02Zm-270.15,226.15c-1.34-.04-2.68-.08-4.02-.12-14.22-.19-26.33-7.77-30.46-19.08-3.46-9.47.24-19.81,9.66-28.09,9.87,2.53,19.3,4.95,28.73,7.36.73,0,1.45.02,2.18.02,20.63,1.49,41.41,1.2,61.12-4.95,35.55-11.09,60.87-32.3,67.36-71.77,3.48-21.12,2.28-40.74-8.64-59.37.08-1.21.17-2.41.25-3.62,13.53-.24,27.07-.47,41.52-.72.23-17.02.38-33.09-.1-49.87-4.64,0-7.93,0-11.22,0-26.31,0-52.62.19-78.92-.11-7.56-.09-15.23-1-22.65-2.52-31.17-6.37-61.85-4.86-90.82,8.35-34.87,15.89-54.88,42.97-55.88,82.38-.02,3.99-.04,7.98-.06,11.97-1,22.35,9.26,40.26,23.08,56.93-3.73,4.84-7.34,9.19-10.57,13.8-8.18,11.66-16.06,23.29-17.9,38.16-2.56,20.74,2.82,38.13,18.92,51.83,2.22,1.89,4.46,3.77,7.08,5.98-6.64,5.95-13.15,11.13-18.87,17.06-13.96,14.45-22.36,31.28-20.18,52.04.62,5.88.4,12.25,2.68,17.47,4.09,9.39,9.66,18.14,17.78,24.89,20.61,17.15,45.27,24.91,71.08,27.44,21.43,2.1,43.22.58,64.85.66,1.34-.14,2.67-.28,4.01-.42,2.96-.47,5.9-1.11,8.87-1.37,20.29-1.77,39.17-8.62,56.98-17.77,29.41-15.1,47.47-38.73,49.96-72.7,2.39-3.31,2.4-6.63.03-9.96-1.7-20.1-9.36-37.04-25.9-49.41-17.27-12.92-37.47-18.53-58.19-20.5-27.13-2.58-54.49-2.78-81.75-4Zm-751.77-97.26c63.43,53.35,126.66,106.54,190.91,160.59,14.77-15.35,28.92-30.06,43.61-45.33-46.97-38.95-93.28-77.36-139.51-115.71,47.14-38.72,93.19-76.54,139.24-114.36-12.96-13.66-25.03-26.47-37.23-39.15-2.14-2.22-4.87-3.87-6.97-5.51-64.05,53.74-127.06,106.62-190.05,159.48Zm1264.66-115.04c46.26,38.41,92.15,76.52,138.71,115.18-2.68,2.72-4.32,4.73-6.3,6.34-5.6,4.55-11.43,8.81-16.99,13.41-13.96,11.55-27.76,23.29-41.73,34.83-8.6,7.1-17.44,13.91-26.1,20.94-13.75,11.17-27.48,22.37-41.1,33.7-2.39,1.99-4.15,4.72-5.94,6.79,14.6,15.14,28.36,29.4,42.85,44.43,63.7-53.59,126.85-106.72,190.84-160.56-63.95-53.68-127.14-106.72-189.46-159.04-15.05,14.78-29.22,28.7-44.78,43.98Z"/>
  <path class="cls-1" d="m1142.39,1131.72c-2.49,33.96-20.55,57.59-49.96,72.7-17.8,9.14-36.69,15.99-56.98,17.77-2.98.26-5.92.9-8.87,1.37-1.34.14-2.67.28-4.01.42-21.63-.08-43.42,1.44-64.85-.66-25.81-2.53-50.47-10.28-71.08-27.44-8.12-6.76-13.69-15.51-17.78-24.89-2.28-5.22-2.06-11.59-2.68-17.47-2.18-20.77,6.22-37.6,20.18-52.04,5.73-5.93,12.24-11.11,18.87-17.06-2.62-2.21-4.86-4.09-7.08-5.98-16.1-13.7-21.48-31.09-18.92-51.83,1.84-14.86,9.72-26.5,17.9-38.16,3.23-4.61,6.84-8.95,10.57-13.8-13.82-16.67-24.08-34.58-23.08-56.93,2.78-3.98,2.76-7.97.06-11.97,1-39.41,21.01-66.48,55.88-82.38,28.97-13.2,59.65-14.72,90.82-8.35,7.42,1.52,15.08,2.43,22.65,2.52,26.3.3,52.62.11,78.92.11,3.29,0,6.58,0,11.22,0,.48,16.78.32,32.85.1,49.87-14.46.25-27.99.49-41.53.72-3.57.96-1.76,2.3-.25,3.62,10.92,18.63,12.12,38.24,8.64,59.37-6.49,39.47-31.81,60.68-67.36,71.77-19.71,6.15-40.49,6.44-61.12,4.95-.73,0-1.45-.02-2.18-.02-9.43-2.42-18.86-4.83-28.73-7.36-9.42,8.28-13.12,18.62-9.66,28.09,4.13,11.3,16.25,18.89,30.46,19.08,1.34.04,2.68.08,4.02.12,27.26,1.22,54.62,1.42,81.75,4,20.73,1.97,40.92,7.58,58.19,20.5,16.54,12.37,24.2,29.3,25.9,49.41-2.53,3.31-2.52,6.63-.03,9.96Zm-143.27,44.84c14.67-.42,29.14-1.25,42.93-6.89,14.54-5.95,25.45-14.14,27.25-31.81,1.47-14.42-2.89-25.21-16.26-29.44-7.47-2.36-15.29-4.44-23.06-4.88-20.58-1.16-41.2-1.49-61.82-1.79-3.05-.04-6.76,1.13-9.06,3.05-5.58,4.66-11.16,9.61-15.56,15.34-7.84,10.2-8.97,22.11-4.45,33.9,4.66,12.15,16.4,16.31,27.4,19.14,10.47,2.69,21.72,2.37,32.63,3.37Zm-2.5-214.65c32.5,1.76,52.19-20.89,52.15-50.73-.05-35.24-20.29-51.12-50.65-50.86-32.37.28-49.52,22.49-49.61,51.89-.04,13.87,3.08,26.49,13.37,36.39,9.99,9.61,21.73,15,34.74,13.31Z"/>
  <path class="cls-10" d="m1247.02,852.52c6.68-6.5,12.78-13.77,20.14-19.37,28.13-21.38,59.2-26.41,93.32-16.72,24.05,6.83,40.35,21.81,49.01,44.37,4.79,12.47,8.5,26.22,8.68,39.45.92,66.65.53,133.31.57,199.97,0,1.28-.37,2.56-.67,4.48h-67.59c-.18-3.78-.48-7.31-.48-10.84-.03-56.66.17-113.32-.2-169.98-.06-10.15-1.63-20.46-3.87-30.39-3.48-15.46-20.78-24.65-38.02-21.06-9.65,2.01-18.65,5.88-25.51,12.96-10.64,10.98-20.56,22.66-30.91,33.94-3.54,3.86-3.45,8.4-3.45,13.11.03,53.66.02,107.32.02,160.98,0,3.58,0,7.15,0,11.34h-67.64c-.28-.24-.55-.43-.78-.68-.21-.23-.5-.5-.53-.79-.22-1.64-.53-3.29-.53-4.93-.02-130.3-.02-260.6-.02-390.74,7.29-2.33,49.57-3.06,69.31-1.18-.11,38.33,1.35,76.8-1.15,115.28-.08,1.34-.16,2.68-.25,4.02-.55,8.65-1.09,17.3-1.64,25.95-.31.95-.63,1.9-.94,2.86,1.04-.67,2.09-1.34,3.13-2.01Z"/>
  <path class="cls-11" d="m738.67,710c-2.44,6.78-4.5,13.72-7.38,20.31-12.08,27.65-24.61,55.1-36.58,82.8-16.24,37.56-32.19,75.25-48.12,112.95-7.84,18.56-15.21,37.32-23.06,55.87-6.96,16.44-14.36,32.69-21.45,49.08-7.72,17.82-15.29,35.71-22.98,53.54-8.49,19.69-17.05,39.36-25.58,59.04-3.34,7.72-6.68,15.44-10.18,23.5h-67.09c3.97-9.53,7.65-18.54,11.48-27.5,11.61-27.16,23.26-54.3,34.93-81.43,13.92-32.36,27.97-64.67,41.79-97.08,11.69-27.42,23-55,34.75-82.39,9.88-23.04,20.26-45.86,30.21-68.86,9.79-22.65,19.3-45.43,28.97-68.14,4.97-11.67,10.01-23.31,15.29-35.6,21.67,0,43.24,0,64.81,0,.07,1.31.13,2.61.2,3.92Z"/>
  <path class="cls-11" d="m774.43,975.71c-.02-10.65-.04-21.3-.07-31.95,3.42-3.04,2.35-4.95-1.55-6.14-1.18-16.28-5.92-31.24-15.74-44.53-8.51-11.51-20.6-16.58-33.89-19.38-6.72-1.41-13.65-1.79-21.43-2.75,1.04-3.9,1.67-7.99,3.2-11.71,5.77-14.04,11.76-28,17.81-41.93,2.93-6.73,8.66-4.37,13.76-3.83,2.11.59,4.22,1.17,6.33,1.76,26.43,4.33,49.92,14.96,68.62,34.33,13.07,13.55,21.3,30.41,26.85,48.24,8.49,27.3,10.81,55.35,7.8,83.81-.45,2.05-.89,4.1-1.34,6.15-3.06,25.56-11.7,49.18-26.42,70.17-15.01,21.4-35.49,35.21-60.38,44.25-26.89,9.76-53.79,9.28-81.32,6.77-17.97-1.64-34.13-8.17-49.44-17.17-4.49-2.64-8.82-5.73-12.6-9.29-1.33-1.26-1.69-4.86-.94-6.79,4.4-11.44,9.2-22.73,13.99-34.02,4.54-10.71,9.18-21.38,13.9-32.02.89-2.02,2.35-3.78,3.01-4.82,5.03,7.78,9.88,15.72,15.16,23.38,14.9,21.63,41.82,25.69,63.49,21.04,28.49-6.11,40.47-27.34,47.24-52.94,1.25-4.72,1.58-9.68,2.34-14.53,3.88-1.15,4.98-3.04,1.62-6.12Z"/>
  <path class="cls-16" d="m224.8,950.59c62.99-52.85,126-105.73,190.05-159.48,2.11,1.64,4.84,3.29,6.97,5.51,12.21,12.68,24.27,25.49,37.23,39.15-46.05,37.82-92.1,75.65-139.24,114.36,46.24,38.35,92.55,76.76,139.51,115.71-14.69,15.27-28.84,29.98-43.61,45.33-64.26-54.05-127.49-107.24-190.91-160.59Z"/>
  <path class="cls-16" d="m1489.46,835.55c15.56-15.28,29.73-29.19,44.78-43.98,62.33,52.32,125.51,105.36,189.46,159.04-63.99,53.84-127.14,106.97-190.84,160.56-14.49-15.02-28.25-29.29-42.85-44.43,1.79-2.08,3.55-4.81,5.94-6.79,13.62-11.34,27.35-22.53,41.1-33.7,8.66-7.03,17.5-13.84,26.1-20.94,13.97-11.54,27.77-23.28,41.73-34.83,5.56-4.6,11.39-8.86,16.99-13.41,1.97-1.6,3.62-3.61,6.3-6.34-46.56-38.66-92.45-76.77-138.71-115.18Z"/>
  <path class="cls-5" d="m884.69,905.74c2.7,4,2.73,7.99-.06,11.97.02-3.99.04-7.98.06-11.97Z"/>
  <path class="cls-12" d="m1142.39,1131.72c-2.49-3.33-2.51-6.64.03-9.96,2.37,3.33,2.37,6.64-.03,9.96Z"/>
  <path class="cls-9" d="m742.85,815.25c-2.11-.59-4.22-1.17-6.33-1.76,2.55-1,4.99-1.62,6.33,1.76Z"/>
  <path class="cls-3" d="m772.81,937.62c3.91,1.19,4.97,3.09,1.55,6.14-.52-2.05-1.04-4.09-1.55-6.14Z"/>
  <path class="cls-3" d="m774.43,975.71c3.36,3.07,2.25,4.96-1.62,6.12.54-2.04,1.08-4.08,1.62-6.12Z"/>
  <path class="cls-6" d="m844.77,987.78c.45-2.05.89-4.1,1.34-6.15,3.76,2.96,2.61,4.86-1.34,6.15Z"/>
  <path class="cls-13" d="m1246.47,825.72c.08-1.34.16-2.68.25-4.02-.08,1.34-.16,2.68-.25,4.02Z"/>
  <path class="cls-13" d="m1247.02,852.52l-3.13,2.01c.31-.95.63-1.9.94-2.86.73.28,1.46.56,2.19.85Z"/>
  <path class="cls-13" d="m976.57,1047.85c-1.34-.04-2.68-.08-4.02-.12,1.34.04,2.68.08,4.02.12Z"/>
  <path class="cls-4" d="m1022.57,1223.97c1.34-.14,2.67-.28,4.01-.42-1.34.14-2.67.28-4.01.42Z"/>
  <path class="cls-15" d="m738.67,710c-.07-1.31-.13-2.61-.2-3.92.67.39,1.33.78,2,1.18-.6.91-1.2,1.83-1.8,2.74Z"/>
  <path class="cls-8" d="m1102.5,871.86c-1.51-1.32-3.31-2.66.25-3.62-.08,1.21-.17,2.41-.25,3.62Z"/>
  <path class="cls-14" d="m980.48,1007.93c.73,0,1.45.01,2.18.02-.73,0-1.45-.02-2.18-.02Z"/>
  <path class="cls-2" d="m999.12,1176.56c-10.91-1-22.15-.68-32.63-3.37-11.01-2.83-22.75-6.99-27.4-19.14-4.52-11.79-3.39-23.7,4.45-33.9,4.41-5.73,9.98-10.67,15.56-15.34,2.3-1.93,6.02-3.1,9.06-3.05,20.61.3,41.24.63,61.82,1.79,7.76.44,15.59,2.51,23.06,4.88,13.37,4.23,17.74,15.02,16.26,29.44-1.81,17.67-12.71,25.86-27.25,31.81-13.79,5.64-28.25,6.47-42.93,6.89Z"/>
  <path class="cls-2" d="m996.61,961.91c-13.02,1.69-24.75-3.7-34.74-13.31-10.29-9.9-13.41-22.52-13.37-36.39.09-29.4,17.24-51.61,49.61-51.89,30.36-.26,50.6,15.62,50.65,50.86.04,29.83-19.65,52.49-52.15,50.73Z"/>
</svg>