<svg width="40" height="40" viewBox="0 0 40 40" fill="none" xmlns="http://www.w3.org/2000/svg">
<path d="M5.53922 32.3238C4.74479 31.3921 4.04187 30.3862 3.44017 29.32C1.8353 26.4763 0.994603 23.2653 1.00003 20C1.00003 9.50657 9.5066 1 20 1C22.9161 1 25.6774 1.65686 28.1465 2.83033M34.459 7.67352C37.3957 11.1085 39.0064 15.4808 39 20C39 30.4934 30.4935 39 20 39C17.0858 39 14.3263 38.344 11.859 37.1715" stroke="#0034EE" stroke-width="2" stroke-miterlimit="10" stroke-linecap="round" stroke-linejoin="round"/>
<path d="M31.6542 11.8029L25.3073 21.1355C25.4966 20.2497 25.4612 19.3306 25.2043 18.462C24.9475 17.5934 24.4774 16.8029 23.8369 16.1624C23.1964 15.522 22.4057 15.052 21.5371 14.7953C20.6685 14.5386 19.7494 14.5033 18.8636 14.6927L39 1L34.4608 7.67533M8.43986 28.0596L14.6927 18.8636C14.5032 19.7495 14.5385 20.6687 14.7953 21.5374C15.052 22.4061 15.5221 23.1968 16.1626 23.8374C16.8032 24.4779 17.5939 24.948 18.4626 25.2047C19.3313 25.4615 20.2505 25.4968 21.1364 25.3073L1 39L5.54009 32.3247" stroke="#0034EE" stroke-width="2" stroke-miterlimit="10" stroke-linecap="round" stroke-linejoin="round"/>
<path d="M20 21.8095C20.9994 21.8095 21.8095 20.9993 21.8095 20C21.8095 19.0006 20.9994 18.1904 20 18.1904C19.0006 18.1904 18.1905 19.0006 18.1905 20C18.1905 20.9993 19.0006 21.8095 20 21.8095Z" stroke="#0034EE" stroke-width="2" stroke-miterlimit="10" stroke-linecap="round" stroke-linejoin="round"/>
</svg>
