<svg width="45" height="38" viewBox="0 0 45 38" fill="none" xmlns="http://www.w3.org/2000/svg">
<path d="M44.1612 17.8057C43.2202 14.4762 40.2526 12.2324 36.7783 12.2324H35.9821C36.1269 9.33715 35.5478 6.94858 34.1002 4.92191C32.4354 2.46095 30.1916 0.940953 27.224 0.217143C26.5002 0.0723808 25.7764 0 24.9802 0C22.0126 0 17.9592 1.37524 15.4983 5.06667C14.5573 4.63238 13.4716 4.41524 12.3135 4.41524C8.26018 4.34286 4.85828 7.60001 4.56875 11.6533C4.06208 11.8705 3.6278 12.16 3.19351 12.5219C2.03542 13.4629 1.16684 14.621 0.587795 15.9962C-0.280777 18.24 -0.208396 20.7734 0.9497 22.8724C2.18018 25.1886 3.9897 26.6362 6.37828 27.2153C6.37828 27.2153 8.54971 27.2153 11.2278 27.2876V26.1295C11.2278 25.6953 11.3002 25.261 11.4449 24.8991H8.69447C6.23351 24.8991 4.42399 23.8857 3.33827 21.7143C2.54208 20.2667 2.4697 18.5295 3.12113 17.0095C3.41066 16.0686 3.9897 15.2 4.78589 14.5486H4.85828C5.22018 14.2591 5.65447 14.0419 6.08875 13.8248C6.08875 13.8248 6.23351 13.7524 6.3059 13.7524C6.52304 13.68 6.88494 13.6076 7.24685 13.3905C7.17447 13.0286 7.10209 12.6667 7.10209 12.2324C7.10209 9.33715 9.49066 6.94858 12.3859 6.94858C13.8335 6.94858 15.1364 7.52763 16.0773 8.46858C16.5116 8.32382 16.8735 8.03429 17.0183 7.60001C17.2354 7.16572 17.4526 6.80381 17.6697 6.44191C19.5516 3.61905 22.664 2.53334 24.9802 2.53334C25.5592 2.53334 26.0659 2.60572 26.645 2.6781C28.8888 3.18476 30.6259 4.41524 31.9288 6.29715C33.0869 8.03429 33.5212 10.061 33.304 12.6667V12.9562C33.2316 13.3905 33.4488 13.8972 33.7383 14.2591C34.0278 14.621 34.4621 14.7657 34.9688 14.7657H36.7783C39.0945 14.7657 41.0488 16.2857 41.6278 18.4572C42.0621 19.9048 41.7726 21.4972 40.8316 22.7276C39.8907 23.9581 38.5154 24.7543 36.9954 24.7543H33.0869C33.2316 25.1162 33.304 25.4781 33.304 25.9124V27.36H37.0678C39.384 27.2876 41.5555 26.1295 42.9307 24.2476C44.3783 22.4381 44.8126 20.0495 44.1612 17.8057Z" fill="#0034EE"/>
<path d="M31.205 35.6838V26.1296C31.205 25.3334 30.7707 24.8991 30.0469 24.8267C29.8297 24.7543 29.7573 24.6819 29.7573 24.5372C29.7573 23.4515 29.7573 22.3657 29.685 21.28C29.6126 20.1943 29.2507 19.181 28.6716 18.3124C27.5135 16.5029 25.9211 15.3448 23.7497 14.8381C23.5326 14.7657 23.3154 14.7657 23.0983 14.6934C22.8811 14.6934 22.664 14.621 22.4469 14.621H22.0126C21.4335 14.6934 20.8545 14.7657 20.3478 14.9105C17.525 15.7067 15.7154 17.5162 14.9192 20.3391C14.6297 21.28 14.7021 22.2934 14.7021 23.3067V24.8267C14.5573 24.8267 14.4126 24.8991 14.3402 24.8991C13.6888 25.0438 13.2545 25.5505 13.2545 26.2019V36.3353C13.2545 37.2762 13.4716 37.6381 14.2678 38H30.264C30.6983 37.7829 31.0602 37.4934 31.1326 36.9867C31.205 36.48 31.205 36.1181 31.205 35.6838ZM23.605 31.8477C23.3154 32.0648 23.2431 32.2096 23.2431 32.4991V34.4534C23.2431 35.0324 22.9535 35.3943 22.5192 35.5391C22.085 35.6838 21.723 35.6115 21.4335 35.2496C21.2888 35.1048 21.2164 34.8877 21.2164 34.6705C21.144 34.2362 21.2164 33.8019 21.2164 33.3677V33.0057C21.2164 32.4267 21.144 31.92 20.6373 31.4857C19.7688 30.7619 19.6964 29.6038 20.203 28.7353C20.7097 27.8667 21.7231 27.36 22.7364 27.5772C23.6773 27.7943 24.4011 28.3734 24.6183 29.3867C24.7631 30.4 24.4011 31.1962 23.605 31.8477ZM26.8621 24.4648C26.8621 24.7543 26.7897 24.8267 26.5002 24.8267H17.8869C17.525 24.8267 17.525 24.8267 17.525 24.4648C17.525 23.5962 17.4526 22.7276 17.525 21.7867C17.5973 20.3391 18.3211 19.181 19.4792 18.3124C21.6507 16.72 24.8354 17.3715 26.2107 19.76C26.645 20.4838 26.8621 21.28 26.8621 22.1486V24.4648Z" fill="#0034EE"/>
</svg>
